<svg xmlns="http://www.w3.org/2000/svg" viewBox="0 0 64 64" role="img" aria-label="u.">
  <rect width="64" height="64" fill="#060604"/>
  <g transform="translate(9.16 50.33) scale(0.0732 -0.0732)" fill="#d4ccc0">
    <path d="M171 -9Q146 -9 123.0 2.0Q100 13 85.0 37.0Q70 61 70 101V449Q70 467 64.5 474.0Q59 481 45 482L28 484Q11 486 11 497Q11 510 30 510H123Q138 510 138 495V122Q138 76 155.5 56.5Q173 37 204 37Q235 37 259.0 54.5Q283 72 297.5 101.5Q312 131 312 166V449Q312 467 306.5 474.0Q301 481 287 482L270 484Q253 486 253 497Q253 510 272 510H365Q380 510 380 495V107Q380 89 385.5 82.5Q391 76 405 74L426 71Q439 70 439 61Q439 52 423 49Q392 45 373.5 33.0Q355 21 341 4Q332 -5 326 -5Q317 -5 317 7V53Q317 61 311.5 62.5Q306 64 300 58Q263 21 234.5 6.0Q206 -9 171 -9Z"/>
    <path transform="translate(454 0)" d="M107 -9Q85 -9 69.5 5.5Q54 20 54 44Q54 67 69.5 81.5Q85 96 107 96Q127 96 143.0 81.5Q159 67 159 44Q159 20 143.0 5.5Q127 -9 107 -9Z"/>
  </g>
</svg>
