<svg xmlns="http://www.w3.org/2000/svg" width="1240" height="560" viewBox="0 0 1240 560" role="img">
<defs>
<radialGradient id="zemin-v7-d" cx="50%" cy="52%" r="72%"><stop offset="0%" stop-color="#16110c"/><stop offset="100%" stop-color="#000000"/></radialGradient>
<linearGradient id="tas-v7-d" x1="0" y1="0" x2="0" y2="1"><stop offset="0%" stop-color="#33302b"/><stop offset="100%" stop-color="#1a1815"/></linearGradient>
<linearGradient id="ic-v7-d" x1="0" y1="0" x2="0" y2="1"><stop offset="0%" stop-color="#1e1811"/><stop offset="44%" stop-color="#0c0a08"/><stop offset="100%" stop-color="#040403"/></linearGradient>
<filter id="gren-v7-d" x="0" y="0" width="100%" height="100%"><feTurbulence type="fractalNoise" baseFrequency="0.66" numOctaves="3" stitchTiles="stitch" result="n"/><feColorMatrix type="saturate" values="0" in="n" result="ng"/><feComponentTransfer in="ng"><feFuncA type="linear" slope="0.08"/></feComponentTransfer></filter>
</defs>
<rect width="1240" height="560" fill="url(#zemin-v7-d)"/>
<rect x="118" y="126" width="48" height="348" fill="url(#tas-v7-d)" stroke="#5d564c" stroke-width="1.4"/>
<clipPath id="cl-yuzey-v7-d"><rect x="118" y="126" width="48" height="348"/></clipPath>
<g clip-path="url(#cl-yuzey-v7-d)">
<line x1="118.0" y1="142.0" x2="143.2" y2="142.0" stroke="#7a7062" stroke-width="1" stroke-opacity="0.28"/>
<line x1="144.8" y1="142.0" x2="163.9" y2="142.0" stroke="#7a7062" stroke-width="1" stroke-opacity="0.18"/>
<line x1="165.6" y1="142.0" x2="166.0" y2="142.0" stroke="#7a7062" stroke-width="1" stroke-opacity="0.13"/>
<line x1="131.7" y1="126.0" x2="131.7" y2="142.0" stroke="#7a7062" stroke-width="1" stroke-opacity="0.17"/>
<line x1="118.0" y1="158.0" x2="147.1" y2="158.0" stroke="#7a7062" stroke-width="1" stroke-opacity="0.19"/>
<line x1="150.9" y1="158.0" x2="166.0" y2="158.0" stroke="#7a7062" stroke-width="1" stroke-opacity="0.34"/>
<line x1="152.5" y1="142.0" x2="152.5" y2="158.0" stroke="#7a7062" stroke-width="1" stroke-opacity="0.12"/>
<line x1="118.0" y1="174.0" x2="138.9" y2="174.0" stroke="#7a7062" stroke-width="1" stroke-opacity="0.20"/>
<line x1="141.4" y1="174.0" x2="165.0" y2="174.0" stroke="#7a7062" stroke-width="1" stroke-opacity="0.23"/>
<line x1="156.3" y1="158.0" x2="156.3" y2="174.0" stroke="#7a7062" stroke-width="1" stroke-opacity="0.19"/>
<line x1="118.0" y1="190.0" x2="138.8" y2="190.0" stroke="#7a7062" stroke-width="1" stroke-opacity="0.26"/>
<line x1="141.5" y1="190.0" x2="166.0" y2="190.0" stroke="#7a7062" stroke-width="1" stroke-opacity="0.23"/>
<line x1="129.9" y1="174.0" x2="129.9" y2="190.0" stroke="#7a7062" stroke-width="1" stroke-opacity="0.19"/>
<line x1="118.0" y1="206.0" x2="129.7" y2="206.0" stroke="#7a7062" stroke-width="1" stroke-opacity="0.28"/>
<line x1="132.2" y1="206.0" x2="160.4" y2="206.0" stroke="#7a7062" stroke-width="1" stroke-opacity="0.27"/>
<line x1="164.3" y1="206.0" x2="166.0" y2="206.0" stroke="#7a7062" stroke-width="1" stroke-opacity="0.16"/>
<line x1="156.4" y1="190.0" x2="156.4" y2="206.0" stroke="#7a7062" stroke-width="1" stroke-opacity="0.14"/>
<line x1="118.0" y1="222.0" x2="127.8" y2="222.0" stroke="#7a7062" stroke-width="1" stroke-opacity="0.21"/>
<line x1="131.6" y1="222.0" x2="142.5" y2="222.0" stroke="#7a7062" stroke-width="1" stroke-opacity="0.18"/>
<line x1="144.2" y1="222.0" x2="165.9" y2="222.0" stroke="#7a7062" stroke-width="1" stroke-opacity="0.21"/>
<line x1="149.0" y1="206.0" x2="149.0" y2="222.0" stroke="#7a7062" stroke-width="1" stroke-opacity="0.12"/>
<line x1="118.0" y1="238.0" x2="130.8" y2="238.0" stroke="#7a7062" stroke-width="1" stroke-opacity="0.32"/>
<line x1="134.5" y1="238.0" x2="154.8" y2="238.0" stroke="#7a7062" stroke-width="1" stroke-opacity="0.29"/>
<line x1="158.3" y1="238.0" x2="166.0" y2="238.0" stroke="#7a7062" stroke-width="1" stroke-opacity="0.28"/>
<line x1="127.5" y1="222.0" x2="127.5" y2="238.0" stroke="#7a7062" stroke-width="1" stroke-opacity="0.09"/>
<line x1="118.0" y1="254.0" x2="145.2" y2="254.0" stroke="#7a7062" stroke-width="1" stroke-opacity="0.22"/>
<line x1="147.3" y1="254.0" x2="166.0" y2="254.0" stroke="#7a7062" stroke-width="1" stroke-opacity="0.28"/>
<line x1="147.8" y1="238.0" x2="147.8" y2="254.0" stroke="#7a7062" stroke-width="1" stroke-opacity="0.21"/>
<line x1="118.0" y1="270.0" x2="140.6" y2="270.0" stroke="#7a7062" stroke-width="1" stroke-opacity="0.19"/>
<line x1="142.8" y1="270.0" x2="166.0" y2="270.0" stroke="#7a7062" stroke-width="1" stroke-opacity="0.22"/>
<line x1="138.0" y1="254.0" x2="138.0" y2="270.0" stroke="#7a7062" stroke-width="1" stroke-opacity="0.11"/>
<line x1="118.0" y1="286.0" x2="129.1" y2="286.0" stroke="#7a7062" stroke-width="1" stroke-opacity="0.36"/>
<line x1="131.2" y1="286.0" x2="144.3" y2="286.0" stroke="#7a7062" stroke-width="1" stroke-opacity="0.36"/>
<line x1="147.2" y1="286.0" x2="166.0" y2="286.0" stroke="#7a7062" stroke-width="1" stroke-opacity="0.19"/>
<line x1="143.3" y1="270.0" x2="143.3" y2="286.0" stroke="#7a7062" stroke-width="1" stroke-opacity="0.16"/>
<line x1="118.0" y1="302.0" x2="129.9" y2="302.0" stroke="#7a7062" stroke-width="1" stroke-opacity="0.15"/>
<line x1="132.8" y1="302.0" x2="154.5" y2="302.0" stroke="#7a7062" stroke-width="1" stroke-opacity="0.23"/>
<line x1="158.0" y1="302.0" x2="166.0" y2="302.0" stroke="#7a7062" stroke-width="1" stroke-opacity="0.31"/>
<line x1="134.7" y1="286.0" x2="134.7" y2="302.0" stroke="#7a7062" stroke-width="1" stroke-opacity="0.09"/>
<line x1="118.0" y1="318.0" x2="140.8" y2="318.0" stroke="#7a7062" stroke-width="1" stroke-opacity="0.34"/>
<line x1="143.5" y1="318.0" x2="166.0" y2="318.0" stroke="#7a7062" stroke-width="1" stroke-opacity="0.32"/>
<line x1="134.3" y1="302.0" x2="134.3" y2="318.0" stroke="#7a7062" stroke-width="1" stroke-opacity="0.20"/>
<line x1="118.0" y1="334.0" x2="136.4" y2="334.0" stroke="#7a7062" stroke-width="1" stroke-opacity="0.34"/>
<line x1="139.2" y1="334.0" x2="166.0" y2="334.0" stroke="#7a7062" stroke-width="1" stroke-opacity="0.32"/>
<line x1="126.5" y1="318.0" x2="126.5" y2="334.0" stroke="#7a7062" stroke-width="1" stroke-opacity="0.09"/>
<line x1="118.0" y1="350.0" x2="146.7" y2="350.0" stroke="#7a7062" stroke-width="1" stroke-opacity="0.21"/>
<line x1="150.7" y1="350.0" x2="163.0" y2="350.0" stroke="#7a7062" stroke-width="1" stroke-opacity="0.29"/>
<line x1="150.4" y1="334.0" x2="150.4" y2="350.0" stroke="#7a7062" stroke-width="1" stroke-opacity="0.10"/>
<line x1="118.0" y1="366.0" x2="143.2" y2="366.0" stroke="#7a7062" stroke-width="1" stroke-opacity="0.16"/>
<line x1="144.9" y1="366.0" x2="165.0" y2="366.0" stroke="#7a7062" stroke-width="1" stroke-opacity="0.27"/>
<line x1="140.5" y1="350.0" x2="140.5" y2="366.0" stroke="#7a7062" stroke-width="1" stroke-opacity="0.09"/>
<line x1="118.0" y1="382.0" x2="133.8" y2="382.0" stroke="#7a7062" stroke-width="1" stroke-opacity="0.35"/>
<line x1="137.0" y1="382.0" x2="157.7" y2="382.0" stroke="#7a7062" stroke-width="1" stroke-opacity="0.14"/>
<line x1="159.9" y1="382.0" x2="166.0" y2="382.0" stroke="#7a7062" stroke-width="1" stroke-opacity="0.18"/>
<line x1="149.8" y1="366.0" x2="149.8" y2="382.0" stroke="#7a7062" stroke-width="1" stroke-opacity="0.13"/>
<line x1="118.0" y1="398.0" x2="144.2" y2="398.0" stroke="#7a7062" stroke-width="1" stroke-opacity="0.30"/>
<line x1="147.9" y1="398.0" x2="166.0" y2="398.0" stroke="#7a7062" stroke-width="1" stroke-opacity="0.36"/>
<line x1="141.4" y1="382.0" x2="141.4" y2="398.0" stroke="#7a7062" stroke-width="1" stroke-opacity="0.13"/>
<line x1="118.0" y1="414.0" x2="128.5" y2="414.0" stroke="#7a7062" stroke-width="1" stroke-opacity="0.22"/>
<line x1="130.7" y1="414.0" x2="151.5" y2="414.0" stroke="#7a7062" stroke-width="1" stroke-opacity="0.30"/>
<line x1="153.8" y1="414.0" x2="166.0" y2="414.0" stroke="#7a7062" stroke-width="1" stroke-opacity="0.14"/>
<line x1="133.5" y1="398.0" x2="133.5" y2="414.0" stroke="#7a7062" stroke-width="1" stroke-opacity="0.11"/>
<line x1="118.0" y1="430.0" x2="129.6" y2="430.0" stroke="#7a7062" stroke-width="1" stroke-opacity="0.22"/>
<line x1="131.7" y1="430.0" x2="149.3" y2="430.0" stroke="#7a7062" stroke-width="1" stroke-opacity="0.28"/>
<line x1="153.5" y1="430.0" x2="166.0" y2="430.0" stroke="#7a7062" stroke-width="1" stroke-opacity="0.24"/>
<line x1="129.6" y1="414.0" x2="129.6" y2="430.0" stroke="#7a7062" stroke-width="1" stroke-opacity="0.12"/>
<line x1="118.0" y1="446.0" x2="147.2" y2="446.0" stroke="#7a7062" stroke-width="1" stroke-opacity="0.29"/>
<line x1="149.1" y1="446.0" x2="166.0" y2="446.0" stroke="#7a7062" stroke-width="1" stroke-opacity="0.27"/>
<line x1="133.7" y1="430.0" x2="133.7" y2="446.0" stroke="#7a7062" stroke-width="1" stroke-opacity="0.12"/>
<line x1="118.0" y1="462.0" x2="139.6" y2="462.0" stroke="#7a7062" stroke-width="1" stroke-opacity="0.23"/>
<line x1="143.2" y1="462.0" x2="166.0" y2="462.0" stroke="#7a7062" stroke-width="1" stroke-opacity="0.14"/>
<line x1="139.5" y1="446.0" x2="139.5" y2="462.0" stroke="#7a7062" stroke-width="1" stroke-opacity="0.16"/>
<ellipse cx="151.9" cy="156.4" rx="11.6" ry="5.7" fill="#000000" fill-opacity="0.081"/>
<ellipse cx="144.1" cy="151.1" rx="6.9" ry="4.4" fill="#000000" fill-opacity="0.073"/>
<ellipse cx="164.7" cy="331.0" rx="6.1" ry="6.0" fill="#5d564c" fill-opacity="0.094"/>
<ellipse cx="127.1" cy="446.8" rx="10.8" ry="4.1" fill="#5d564c" fill-opacity="0.092"/>
<ellipse cx="142.1" cy="312.5" rx="9.1" ry="4.4" fill="#000000" fill-opacity="0.090"/>
<ellipse cx="141.2" cy="320.8" rx="5.0" ry="3.7" fill="#5d564c" fill-opacity="0.103"/>
<ellipse cx="127.7" cy="283.3" rx="3.6" ry="7.7" fill="#5d564c" fill-opacity="0.057"/>
</g>
<g opacity="0.17">
<rect x="1074" y="126" width="48" height="348" fill="url(#tas-v7-d)" stroke="#5d564c" stroke-width="1.2" stroke-dasharray="7 9"/>
<clipPath id="cl-hayalet-v7-d"><rect x="1074" y="126" width="48" height="348"/></clipPath>
<g clip-path="url(#cl-hayalet-v7-d)">
<line x1="1074.0" y1="142.0" x2="1099.2" y2="142.0" stroke="#7a7062" stroke-width="1" stroke-opacity="0.28"/>
<line x1="1100.8" y1="142.0" x2="1119.9" y2="142.0" stroke="#7a7062" stroke-width="1" stroke-opacity="0.18"/>
<line x1="1121.6" y1="142.0" x2="1122.0" y2="142.0" stroke="#7a7062" stroke-width="1" stroke-opacity="0.13"/>
<line x1="1087.7" y1="126.0" x2="1087.7" y2="142.0" stroke="#7a7062" stroke-width="1" stroke-opacity="0.17"/>
<line x1="1074.0" y1="158.0" x2="1103.1" y2="158.0" stroke="#7a7062" stroke-width="1" stroke-opacity="0.19"/>
<line x1="1106.9" y1="158.0" x2="1122.0" y2="158.0" stroke="#7a7062" stroke-width="1" stroke-opacity="0.34"/>
<line x1="1108.5" y1="142.0" x2="1108.5" y2="158.0" stroke="#7a7062" stroke-width="1" stroke-opacity="0.12"/>
<line x1="1074.0" y1="174.0" x2="1094.9" y2="174.0" stroke="#7a7062" stroke-width="1" stroke-opacity="0.20"/>
<line x1="1097.4" y1="174.0" x2="1121.0" y2="174.0" stroke="#7a7062" stroke-width="1" stroke-opacity="0.23"/>
<line x1="1112.3" y1="158.0" x2="1112.3" y2="174.0" stroke="#7a7062" stroke-width="1" stroke-opacity="0.19"/>
<line x1="1074.0" y1="190.0" x2="1094.8" y2="190.0" stroke="#7a7062" stroke-width="1" stroke-opacity="0.26"/>
<line x1="1097.5" y1="190.0" x2="1122.0" y2="190.0" stroke="#7a7062" stroke-width="1" stroke-opacity="0.23"/>
<line x1="1085.9" y1="174.0" x2="1085.9" y2="190.0" stroke="#7a7062" stroke-width="1" stroke-opacity="0.19"/>
<line x1="1074.0" y1="206.0" x2="1085.7" y2="206.0" stroke="#7a7062" stroke-width="1" stroke-opacity="0.28"/>
<line x1="1088.2" y1="206.0" x2="1116.4" y2="206.0" stroke="#7a7062" stroke-width="1" stroke-opacity="0.27"/>
<line x1="1120.3" y1="206.0" x2="1122.0" y2="206.0" stroke="#7a7062" stroke-width="1" stroke-opacity="0.16"/>
<line x1="1112.4" y1="190.0" x2="1112.4" y2="206.0" stroke="#7a7062" stroke-width="1" stroke-opacity="0.14"/>
<line x1="1074.0" y1="222.0" x2="1083.8" y2="222.0" stroke="#7a7062" stroke-width="1" stroke-opacity="0.21"/>
<line x1="1087.6" y1="222.0" x2="1098.5" y2="222.0" stroke="#7a7062" stroke-width="1" stroke-opacity="0.18"/>
<line x1="1100.2" y1="222.0" x2="1121.9" y2="222.0" stroke="#7a7062" stroke-width="1" stroke-opacity="0.21"/>
<line x1="1105.0" y1="206.0" x2="1105.0" y2="222.0" stroke="#7a7062" stroke-width="1" stroke-opacity="0.12"/>
<line x1="1074.0" y1="238.0" x2="1086.8" y2="238.0" stroke="#7a7062" stroke-width="1" stroke-opacity="0.32"/>
<line x1="1090.5" y1="238.0" x2="1110.8" y2="238.0" stroke="#7a7062" stroke-width="1" stroke-opacity="0.29"/>
<line x1="1114.3" y1="238.0" x2="1122.0" y2="238.0" stroke="#7a7062" stroke-width="1" stroke-opacity="0.28"/>
<line x1="1083.5" y1="222.0" x2="1083.5" y2="238.0" stroke="#7a7062" stroke-width="1" stroke-opacity="0.09"/>
<line x1="1074.0" y1="254.0" x2="1101.2" y2="254.0" stroke="#7a7062" stroke-width="1" stroke-opacity="0.22"/>
<line x1="1103.3" y1="254.0" x2="1122.0" y2="254.0" stroke="#7a7062" stroke-width="1" stroke-opacity="0.28"/>
<line x1="1103.8" y1="238.0" x2="1103.8" y2="254.0" stroke="#7a7062" stroke-width="1" stroke-opacity="0.21"/>
<line x1="1074.0" y1="270.0" x2="1096.6" y2="270.0" stroke="#7a7062" stroke-width="1" stroke-opacity="0.19"/>
<line x1="1098.8" y1="270.0" x2="1122.0" y2="270.0" stroke="#7a7062" stroke-width="1" stroke-opacity="0.22"/>
<line x1="1094.0" y1="254.0" x2="1094.0" y2="270.0" stroke="#7a7062" stroke-width="1" stroke-opacity="0.11"/>
<line x1="1074.0" y1="286.0" x2="1085.1" y2="286.0" stroke="#7a7062" stroke-width="1" stroke-opacity="0.36"/>
<line x1="1087.2" y1="286.0" x2="1100.3" y2="286.0" stroke="#7a7062" stroke-width="1" stroke-opacity="0.36"/>
<line x1="1103.2" y1="286.0" x2="1122.0" y2="286.0" stroke="#7a7062" stroke-width="1" stroke-opacity="0.19"/>
<line x1="1099.3" y1="270.0" x2="1099.3" y2="286.0" stroke="#7a7062" stroke-width="1" stroke-opacity="0.16"/>
<line x1="1074.0" y1="302.0" x2="1085.9" y2="302.0" stroke="#7a7062" stroke-width="1" stroke-opacity="0.15"/>
<line x1="1088.8" y1="302.0" x2="1110.5" y2="302.0" stroke="#7a7062" stroke-width="1" stroke-opacity="0.23"/>
<line x1="1114.0" y1="302.0" x2="1122.0" y2="302.0" stroke="#7a7062" stroke-width="1" stroke-opacity="0.31"/>
<line x1="1090.7" y1="286.0" x2="1090.7" y2="302.0" stroke="#7a7062" stroke-width="1" stroke-opacity="0.09"/>
<line x1="1074.0" y1="318.0" x2="1096.8" y2="318.0" stroke="#7a7062" stroke-width="1" stroke-opacity="0.34"/>
<line x1="1099.5" y1="318.0" x2="1122.0" y2="318.0" stroke="#7a7062" stroke-width="1" stroke-opacity="0.32"/>
<line x1="1090.3" y1="302.0" x2="1090.3" y2="318.0" stroke="#7a7062" stroke-width="1" stroke-opacity="0.20"/>
<line x1="1074.0" y1="334.0" x2="1092.4" y2="334.0" stroke="#7a7062" stroke-width="1" stroke-opacity="0.34"/>
<line x1="1095.2" y1="334.0" x2="1122.0" y2="334.0" stroke="#7a7062" stroke-width="1" stroke-opacity="0.32"/>
<line x1="1082.5" y1="318.0" x2="1082.5" y2="334.0" stroke="#7a7062" stroke-width="1" stroke-opacity="0.09"/>
<line x1="1074.0" y1="350.0" x2="1102.7" y2="350.0" stroke="#7a7062" stroke-width="1" stroke-opacity="0.21"/>
<line x1="1106.7" y1="350.0" x2="1119.0" y2="350.0" stroke="#7a7062" stroke-width="1" stroke-opacity="0.29"/>
<line x1="1106.4" y1="334.0" x2="1106.4" y2="350.0" stroke="#7a7062" stroke-width="1" stroke-opacity="0.10"/>
<line x1="1074.0" y1="366.0" x2="1099.2" y2="366.0" stroke="#7a7062" stroke-width="1" stroke-opacity="0.16"/>
<line x1="1100.9" y1="366.0" x2="1121.0" y2="366.0" stroke="#7a7062" stroke-width="1" stroke-opacity="0.27"/>
<line x1="1096.5" y1="350.0" x2="1096.5" y2="366.0" stroke="#7a7062" stroke-width="1" stroke-opacity="0.09"/>
<line x1="1074.0" y1="382.0" x2="1089.8" y2="382.0" stroke="#7a7062" stroke-width="1" stroke-opacity="0.35"/>
<line x1="1093.0" y1="382.0" x2="1113.7" y2="382.0" stroke="#7a7062" stroke-width="1" stroke-opacity="0.14"/>
<line x1="1115.9" y1="382.0" x2="1122.0" y2="382.0" stroke="#7a7062" stroke-width="1" stroke-opacity="0.18"/>
<line x1="1105.8" y1="366.0" x2="1105.8" y2="382.0" stroke="#7a7062" stroke-width="1" stroke-opacity="0.13"/>
<line x1="1074.0" y1="398.0" x2="1100.2" y2="398.0" stroke="#7a7062" stroke-width="1" stroke-opacity="0.30"/>
<line x1="1103.9" y1="398.0" x2="1122.0" y2="398.0" stroke="#7a7062" stroke-width="1" stroke-opacity="0.36"/>
<line x1="1097.4" y1="382.0" x2="1097.4" y2="398.0" stroke="#7a7062" stroke-width="1" stroke-opacity="0.13"/>
<line x1="1074.0" y1="414.0" x2="1084.5" y2="414.0" stroke="#7a7062" stroke-width="1" stroke-opacity="0.22"/>
<line x1="1086.7" y1="414.0" x2="1107.5" y2="414.0" stroke="#7a7062" stroke-width="1" stroke-opacity="0.30"/>
<line x1="1109.8" y1="414.0" x2="1122.0" y2="414.0" stroke="#7a7062" stroke-width="1" stroke-opacity="0.14"/>
<line x1="1089.5" y1="398.0" x2="1089.5" y2="414.0" stroke="#7a7062" stroke-width="1" stroke-opacity="0.11"/>
<line x1="1074.0" y1="430.0" x2="1085.6" y2="430.0" stroke="#7a7062" stroke-width="1" stroke-opacity="0.22"/>
<line x1="1087.7" y1="430.0" x2="1105.3" y2="430.0" stroke="#7a7062" stroke-width="1" stroke-opacity="0.28"/>
<line x1="1109.5" y1="430.0" x2="1122.0" y2="430.0" stroke="#7a7062" stroke-width="1" stroke-opacity="0.24"/>
<line x1="1085.6" y1="414.0" x2="1085.6" y2="430.0" stroke="#7a7062" stroke-width="1" stroke-opacity="0.12"/>
<line x1="1074.0" y1="446.0" x2="1103.2" y2="446.0" stroke="#7a7062" stroke-width="1" stroke-opacity="0.29"/>
<line x1="1105.1" y1="446.0" x2="1122.0" y2="446.0" stroke="#7a7062" stroke-width="1" stroke-opacity="0.27"/>
<line x1="1089.7" y1="430.0" x2="1089.7" y2="446.0" stroke="#7a7062" stroke-width="1" stroke-opacity="0.12"/>
<line x1="1074.0" y1="462.0" x2="1095.6" y2="462.0" stroke="#7a7062" stroke-width="1" stroke-opacity="0.23"/>
<line x1="1099.2" y1="462.0" x2="1122.0" y2="462.0" stroke="#7a7062" stroke-width="1" stroke-opacity="0.14"/>
<line x1="1095.5" y1="446.0" x2="1095.5" y2="462.0" stroke="#7a7062" stroke-width="1" stroke-opacity="0.16"/>
<ellipse cx="1107.9" cy="156.4" rx="11.6" ry="5.7" fill="#000000" fill-opacity="0.081"/>
<ellipse cx="1100.1" cy="151.1" rx="6.9" ry="4.4" fill="#000000" fill-opacity="0.073"/>
<ellipse cx="1120.7" cy="331.0" rx="6.1" ry="6.0" fill="#5d564c" fill-opacity="0.094"/>
<ellipse cx="1083.1" cy="446.8" rx="10.8" ry="4.1" fill="#5d564c" fill-opacity="0.092"/>
<ellipse cx="1098.1" cy="312.5" rx="9.1" ry="4.4" fill="#000000" fill-opacity="0.090"/>
<ellipse cx="1097.2" cy="320.8" rx="5.0" ry="3.7" fill="#5d564c" fill-opacity="0.103"/>
<ellipse cx="1083.7" cy="283.3" rx="3.6" ry="7.7" fill="#5d564c" fill-opacity="0.057"/>
</g>
</g>
<rect x="464.0" y="137.0" width="344" height="310" fill="url(#tas-v7-d)" stroke="#5d564c" stroke-width="1.6"/>
<clipPath id="cl-govde-v7-d"><rect x="464.0" y="137.0" width="344" height="310"/></clipPath>
<g clip-path="url(#cl-govde-v7-d)">
<line x1="464.0" y1="153.0" x2="564.6" y2="153.0" stroke="#7a7062" stroke-width="1" stroke-opacity="0.26"/>
<line x1="589.7" y1="153.0" x2="727.0" y2="153.0" stroke="#7a7062" stroke-width="1" stroke-opacity="0.17"/>
<line x1="736.6" y1="153.0" x2="808.0" y2="153.0" stroke="#7a7062" stroke-width="1" stroke-opacity="0.31"/>
<line x1="486.9" y1="137.0" x2="486.9" y2="153.0" stroke="#7a7062" stroke-width="1" stroke-opacity="0.16"/>
<line x1="544.3" y1="137.0" x2="544.3" y2="153.0" stroke="#7a7062" stroke-width="1" stroke-opacity="0.13"/>
<line x1="601.6" y1="137.0" x2="601.6" y2="153.0" stroke="#7a7062" stroke-width="1" stroke-opacity="0.16"/>
<line x1="658.9" y1="137.0" x2="658.9" y2="153.0" stroke="#7a7062" stroke-width="1" stroke-opacity="0.13"/>
<line x1="716.3" y1="137.0" x2="716.3" y2="153.0" stroke="#7a7062" stroke-width="1" stroke-opacity="0.18"/>
<line x1="773.6" y1="137.0" x2="773.6" y2="153.0" stroke="#7a7062" stroke-width="1" stroke-opacity="0.17"/>
<line x1="464.0" y1="169.0" x2="556.4" y2="169.0" stroke="#7a7062" stroke-width="1" stroke-opacity="0.18"/>
<line x1="583.7" y1="169.0" x2="679.1" y2="169.0" stroke="#7a7062" stroke-width="1" stroke-opacity="0.22"/>
<line x1="705.1" y1="169.0" x2="808.0" y2="169.0" stroke="#7a7062" stroke-width="1" stroke-opacity="0.27"/>
<line x1="474.6" y1="153.0" x2="474.6" y2="169.0" stroke="#7a7062" stroke-width="1" stroke-opacity="0.13"/>
<line x1="531.9" y1="153.0" x2="531.9" y2="169.0" stroke="#7a7062" stroke-width="1" stroke-opacity="0.14"/>
<line x1="589.2" y1="153.0" x2="589.2" y2="169.0" stroke="#7a7062" stroke-width="1" stroke-opacity="0.08"/>
<line x1="646.6" y1="153.0" x2="646.6" y2="169.0" stroke="#7a7062" stroke-width="1" stroke-opacity="0.17"/>
<line x1="703.9" y1="153.0" x2="703.9" y2="169.0" stroke="#7a7062" stroke-width="1" stroke-opacity="0.16"/>
<line x1="761.2" y1="153.0" x2="761.2" y2="169.0" stroke="#7a7062" stroke-width="1" stroke-opacity="0.15"/>
<line x1="464.0" y1="185.0" x2="581.1" y2="185.0" stroke="#7a7062" stroke-width="1" stroke-opacity="0.32"/>
<line x1="591.8" y1="185.0" x2="723.8" y2="185.0" stroke="#7a7062" stroke-width="1" stroke-opacity="0.18"/>
<line x1="730.0" y1="185.0" x2="808.0" y2="185.0" stroke="#7a7062" stroke-width="1" stroke-opacity="0.14"/>
<line x1="499.5" y1="169.0" x2="499.5" y2="185.0" stroke="#7a7062" stroke-width="1" stroke-opacity="0.17"/>
<line x1="556.8" y1="169.0" x2="556.8" y2="185.0" stroke="#7a7062" stroke-width="1" stroke-opacity="0.16"/>
<line x1="614.1" y1="169.0" x2="614.1" y2="185.0" stroke="#7a7062" stroke-width="1" stroke-opacity="0.14"/>
<line x1="671.5" y1="169.0" x2="671.5" y2="185.0" stroke="#7a7062" stroke-width="1" stroke-opacity="0.11"/>
<line x1="728.8" y1="169.0" x2="728.8" y2="185.0" stroke="#7a7062" stroke-width="1" stroke-opacity="0.14"/>
<line x1="786.1" y1="169.0" x2="786.1" y2="185.0" stroke="#7a7062" stroke-width="1" stroke-opacity="0.13"/>
<line x1="464.0" y1="201.0" x2="589.9" y2="201.0" stroke="#7a7062" stroke-width="1" stroke-opacity="0.20"/>
<line x1="595.6" y1="201.0" x2="791.4" y2="201.0" stroke="#7a7062" stroke-width="1" stroke-opacity="0.12"/>
<line x1="794.5" y1="201.0" x2="808.0" y2="201.0" stroke="#7a7062" stroke-width="1" stroke-opacity="0.33"/>
<line x1="476.5" y1="185.0" x2="476.5" y2="201.0" stroke="#7a7062" stroke-width="1" stroke-opacity="0.14"/>
<line x1="533.8" y1="185.0" x2="533.8" y2="201.0" stroke="#7a7062" stroke-width="1" stroke-opacity="0.15"/>
<line x1="591.2" y1="185.0" x2="591.2" y2="201.0" stroke="#7a7062" stroke-width="1" stroke-opacity="0.10"/>
<line x1="648.5" y1="185.0" x2="648.5" y2="201.0" stroke="#7a7062" stroke-width="1" stroke-opacity="0.16"/>
<line x1="705.8" y1="185.0" x2="705.8" y2="201.0" stroke="#7a7062" stroke-width="1" stroke-opacity="0.10"/>
<line x1="763.2" y1="185.0" x2="763.2" y2="201.0" stroke="#7a7062" stroke-width="1" stroke-opacity="0.09"/>
<line x1="464.0" y1="217.0" x2="662.8" y2="217.0" stroke="#7a7062" stroke-width="1" stroke-opacity="0.17"/>
<line x1="671.3" y1="217.0" x2="771.4" y2="217.0" stroke="#7a7062" stroke-width="1" stroke-opacity="0.21"/>
<line x1="793.6" y1="217.0" x2="808.0" y2="217.0" stroke="#7a7062" stroke-width="1" stroke-opacity="0.28"/>
<line x1="505.9" y1="201.0" x2="505.9" y2="217.0" stroke="#7a7062" stroke-width="1" stroke-opacity="0.19"/>
<line x1="563.2" y1="201.0" x2="563.2" y2="217.0" stroke="#7a7062" stroke-width="1" stroke-opacity="0.09"/>
<line x1="620.5" y1="201.0" x2="620.5" y2="217.0" stroke="#7a7062" stroke-width="1" stroke-opacity="0.18"/>
<line x1="677.9" y1="201.0" x2="677.9" y2="217.0" stroke="#7a7062" stroke-width="1" stroke-opacity="0.19"/>
<line x1="735.2" y1="201.0" x2="735.2" y2="217.0" stroke="#7a7062" stroke-width="1" stroke-opacity="0.15"/>
<line x1="792.5" y1="201.0" x2="792.5" y2="217.0" stroke="#7a7062" stroke-width="1" stroke-opacity="0.11"/>
<line x1="464.0" y1="233.0" x2="625.1" y2="233.0" stroke="#7a7062" stroke-width="1" stroke-opacity="0.30"/>
<line x1="644.6" y1="233.0" x2="718.5" y2="233.0" stroke="#7a7062" stroke-width="1" stroke-opacity="0.30"/>
<line x1="733.6" y1="233.0" x2="808.0" y2="233.0" stroke="#7a7062" stroke-width="1" stroke-opacity="0.17"/>
<line x1="487.5" y1="217.0" x2="487.5" y2="233.0" stroke="#7a7062" stroke-width="1" stroke-opacity="0.13"/>
<line x1="544.8" y1="217.0" x2="544.8" y2="233.0" stroke="#7a7062" stroke-width="1" stroke-opacity="0.12"/>
<line x1="602.1" y1="217.0" x2="602.1" y2="233.0" stroke="#7a7062" stroke-width="1" stroke-opacity="0.18"/>
<line x1="659.5" y1="217.0" x2="659.5" y2="233.0" stroke="#7a7062" stroke-width="1" stroke-opacity="0.18"/>
<line x1="716.8" y1="217.0" x2="716.8" y2="233.0" stroke="#7a7062" stroke-width="1" stroke-opacity="0.08"/>
<line x1="774.1" y1="217.0" x2="774.1" y2="233.0" stroke="#7a7062" stroke-width="1" stroke-opacity="0.17"/>
<line x1="464.0" y1="249.0" x2="585.8" y2="249.0" stroke="#7a7062" stroke-width="1" stroke-opacity="0.30"/>
<line x1="614.1" y1="249.0" x2="769.9" y2="249.0" stroke="#7a7062" stroke-width="1" stroke-opacity="0.30"/>
<line x1="782.0" y1="249.0" x2="808.0" y2="249.0" stroke="#7a7062" stroke-width="1" stroke-opacity="0.20"/>
<line x1="474.2" y1="233.0" x2="474.2" y2="249.0" stroke="#7a7062" stroke-width="1" stroke-opacity="0.10"/>
<line x1="531.5" y1="233.0" x2="531.5" y2="249.0" stroke="#7a7062" stroke-width="1" stroke-opacity="0.12"/>
<line x1="588.8" y1="233.0" x2="588.8" y2="249.0" stroke="#7a7062" stroke-width="1" stroke-opacity="0.10"/>
<line x1="646.2" y1="233.0" x2="646.2" y2="249.0" stroke="#7a7062" stroke-width="1" stroke-opacity="0.18"/>
<line x1="703.5" y1="233.0" x2="703.5" y2="249.0" stroke="#7a7062" stroke-width="1" stroke-opacity="0.10"/>
<line x1="760.8" y1="233.0" x2="760.8" y2="249.0" stroke="#7a7062" stroke-width="1" stroke-opacity="0.13"/>
<line x1="464.0" y1="265.0" x2="643.7" y2="265.0" stroke="#7a7062" stroke-width="1" stroke-opacity="0.33"/>
<line x1="650.5" y1="265.0" x2="808.0" y2="265.0" stroke="#7a7062" stroke-width="1" stroke-opacity="0.19"/>
<line x1="500.1" y1="249.0" x2="500.1" y2="265.0" stroke="#7a7062" stroke-width="1" stroke-opacity="0.18"/>
<line x1="557.5" y1="249.0" x2="557.5" y2="265.0" stroke="#7a7062" stroke-width="1" stroke-opacity="0.13"/>
<line x1="614.8" y1="249.0" x2="614.8" y2="265.0" stroke="#7a7062" stroke-width="1" stroke-opacity="0.15"/>
<line x1="672.1" y1="249.0" x2="672.1" y2="265.0" stroke="#7a7062" stroke-width="1" stroke-opacity="0.13"/>
<line x1="729.5" y1="249.0" x2="729.5" y2="265.0" stroke="#7a7062" stroke-width="1" stroke-opacity="0.18"/>
<line x1="786.8" y1="249.0" x2="786.8" y2="265.0" stroke="#7a7062" stroke-width="1" stroke-opacity="0.16"/>
<line x1="464.0" y1="281.0" x2="634.6" y2="281.0" stroke="#7a7062" stroke-width="1" stroke-opacity="0.17"/>
<line x1="638.8" y1="281.0" x2="727.4" y2="281.0" stroke="#7a7062" stroke-width="1" stroke-opacity="0.20"/>
<line x1="743.0" y1="281.0" x2="808.0" y2="281.0" stroke="#7a7062" stroke-width="1" stroke-opacity="0.33"/>
<line x1="481.1" y1="265.0" x2="481.1" y2="281.0" stroke="#7a7062" stroke-width="1" stroke-opacity="0.11"/>
<line x1="538.4" y1="265.0" x2="538.4" y2="281.0" stroke="#7a7062" stroke-width="1" stroke-opacity="0.09"/>
<line x1="595.7" y1="265.0" x2="595.7" y2="281.0" stroke="#7a7062" stroke-width="1" stroke-opacity="0.11"/>
<line x1="653.1" y1="265.0" x2="653.1" y2="281.0" stroke="#7a7062" stroke-width="1" stroke-opacity="0.10"/>
<line x1="710.4" y1="265.0" x2="710.4" y2="281.0" stroke="#7a7062" stroke-width="1" stroke-opacity="0.10"/>
<line x1="767.7" y1="265.0" x2="767.7" y2="281.0" stroke="#7a7062" stroke-width="1" stroke-opacity="0.17"/>
<line x1="464.0" y1="297.0" x2="600.4" y2="297.0" stroke="#7a7062" stroke-width="1" stroke-opacity="0.27"/>
<line x1="613.2" y1="297.0" x2="705.1" y2="297.0" stroke="#7a7062" stroke-width="1" stroke-opacity="0.28"/>
<line x1="721.6" y1="297.0" x2="808.0" y2="297.0" stroke="#7a7062" stroke-width="1" stroke-opacity="0.31"/>
<line x1="496.3" y1="281.0" x2="496.3" y2="297.0" stroke="#7a7062" stroke-width="1" stroke-opacity="0.19"/>
<line x1="553.7" y1="281.0" x2="553.7" y2="297.0" stroke="#7a7062" stroke-width="1" stroke-opacity="0.15"/>
<line x1="611.0" y1="281.0" x2="611.0" y2="297.0" stroke="#7a7062" stroke-width="1" stroke-opacity="0.12"/>
<line x1="668.3" y1="281.0" x2="668.3" y2="297.0" stroke="#7a7062" stroke-width="1" stroke-opacity="0.12"/>
<line x1="725.7" y1="281.0" x2="725.7" y2="297.0" stroke="#7a7062" stroke-width="1" stroke-opacity="0.18"/>
<line x1="783.0" y1="281.0" x2="783.0" y2="297.0" stroke="#7a7062" stroke-width="1" stroke-opacity="0.11"/>
<line x1="464.0" y1="313.0" x2="541.6" y2="313.0" stroke="#7a7062" stroke-width="1" stroke-opacity="0.21"/>
<line x1="563.2" y1="313.0" x2="758.1" y2="313.0" stroke="#7a7062" stroke-width="1" stroke-opacity="0.14"/>
<line x1="762.2" y1="313.0" x2="808.0" y2="313.0" stroke="#7a7062" stroke-width="1" stroke-opacity="0.32"/>
<line x1="486.5" y1="297.0" x2="486.5" y2="313.0" stroke="#7a7062" stroke-width="1" stroke-opacity="0.16"/>
<line x1="543.8" y1="297.0" x2="543.8" y2="313.0" stroke="#7a7062" stroke-width="1" stroke-opacity="0.09"/>
<line x1="601.1" y1="297.0" x2="601.1" y2="313.0" stroke="#7a7062" stroke-width="1" stroke-opacity="0.15"/>
<line x1="658.5" y1="297.0" x2="658.5" y2="313.0" stroke="#7a7062" stroke-width="1" stroke-opacity="0.14"/>
<line x1="715.8" y1="297.0" x2="715.8" y2="313.0" stroke="#7a7062" stroke-width="1" stroke-opacity="0.12"/>
<line x1="773.1" y1="297.0" x2="773.1" y2="313.0" stroke="#7a7062" stroke-width="1" stroke-opacity="0.15"/>
<line x1="464.0" y1="329.0" x2="545.1" y2="329.0" stroke="#7a7062" stroke-width="1" stroke-opacity="0.26"/>
<line x1="572.2" y1="329.0" x2="682.8" y2="329.0" stroke="#7a7062" stroke-width="1" stroke-opacity="0.26"/>
<line x1="712.5" y1="329.0" x2="808.0" y2="329.0" stroke="#7a7062" stroke-width="1" stroke-opacity="0.19"/>
<line x1="502.9" y1="313.0" x2="502.9" y2="329.0" stroke="#7a7062" stroke-width="1" stroke-opacity="0.18"/>
<line x1="560.3" y1="313.0" x2="560.3" y2="329.0" stroke="#7a7062" stroke-width="1" stroke-opacity="0.19"/>
<line x1="617.6" y1="313.0" x2="617.6" y2="329.0" stroke="#7a7062" stroke-width="1" stroke-opacity="0.13"/>
<line x1="674.9" y1="313.0" x2="674.9" y2="329.0" stroke="#7a7062" stroke-width="1" stroke-opacity="0.18"/>
<line x1="732.3" y1="313.0" x2="732.3" y2="329.0" stroke="#7a7062" stroke-width="1" stroke-opacity="0.15"/>
<line x1="789.6" y1="313.0" x2="789.6" y2="329.0" stroke="#7a7062" stroke-width="1" stroke-opacity="0.12"/>
<line x1="464.0" y1="345.0" x2="619.5" y2="345.0" stroke="#7a7062" stroke-width="1" stroke-opacity="0.19"/>
<line x1="633.4" y1="345.0" x2="757.8" y2="345.0" stroke="#7a7062" stroke-width="1" stroke-opacity="0.32"/>
<line x1="772.7" y1="345.0" x2="808.0" y2="345.0" stroke="#7a7062" stroke-width="1" stroke-opacity="0.31"/>
<line x1="478.4" y1="329.0" x2="478.4" y2="345.0" stroke="#7a7062" stroke-width="1" stroke-opacity="0.11"/>
<line x1="535.7" y1="329.0" x2="535.7" y2="345.0" stroke="#7a7062" stroke-width="1" stroke-opacity="0.12"/>
<line x1="593.0" y1="329.0" x2="593.0" y2="345.0" stroke="#7a7062" stroke-width="1" stroke-opacity="0.17"/>
<line x1="650.4" y1="329.0" x2="650.4" y2="345.0" stroke="#7a7062" stroke-width="1" stroke-opacity="0.15"/>
<line x1="707.7" y1="329.0" x2="707.7" y2="345.0" stroke="#7a7062" stroke-width="1" stroke-opacity="0.12"/>
<line x1="765.0" y1="329.0" x2="765.0" y2="345.0" stroke="#7a7062" stroke-width="1" stroke-opacity="0.16"/>
<line x1="464.0" y1="361.0" x2="636.5" y2="361.0" stroke="#7a7062" stroke-width="1" stroke-opacity="0.23"/>
<line x1="660.3" y1="361.0" x2="808.0" y2="361.0" stroke="#7a7062" stroke-width="1" stroke-opacity="0.19"/>
<line x1="476.2" y1="345.0" x2="476.2" y2="361.0" stroke="#7a7062" stroke-width="1" stroke-opacity="0.11"/>
<line x1="533.5" y1="345.0" x2="533.5" y2="361.0" stroke="#7a7062" stroke-width="1" stroke-opacity="0.10"/>
<line x1="590.8" y1="345.0" x2="590.8" y2="361.0" stroke="#7a7062" stroke-width="1" stroke-opacity="0.19"/>
<line x1="648.2" y1="345.0" x2="648.2" y2="361.0" stroke="#7a7062" stroke-width="1" stroke-opacity="0.08"/>
<line x1="705.5" y1="345.0" x2="705.5" y2="361.0" stroke="#7a7062" stroke-width="1" stroke-opacity="0.16"/>
<line x1="762.8" y1="345.0" x2="762.8" y2="361.0" stroke="#7a7062" stroke-width="1" stroke-opacity="0.11"/>
<line x1="464.0" y1="377.0" x2="582.9" y2="377.0" stroke="#7a7062" stroke-width="1" stroke-opacity="0.13"/>
<line x1="607.6" y1="377.0" x2="692.7" y2="377.0" stroke="#7a7062" stroke-width="1" stroke-opacity="0.14"/>
<line x1="717.6" y1="377.0" x2="808.0" y2="377.0" stroke="#7a7062" stroke-width="1" stroke-opacity="0.24"/>
<line x1="498.5" y1="361.0" x2="498.5" y2="377.0" stroke="#7a7062" stroke-width="1" stroke-opacity="0.10"/>
<line x1="555.8" y1="361.0" x2="555.8" y2="377.0" stroke="#7a7062" stroke-width="1" stroke-opacity="0.19"/>
<line x1="613.1" y1="361.0" x2="613.1" y2="377.0" stroke="#7a7062" stroke-width="1" stroke-opacity="0.17"/>
<line x1="670.5" y1="361.0" x2="670.5" y2="377.0" stroke="#7a7062" stroke-width="1" stroke-opacity="0.13"/>
<line x1="727.8" y1="361.0" x2="727.8" y2="377.0" stroke="#7a7062" stroke-width="1" stroke-opacity="0.13"/>
<line x1="785.1" y1="361.0" x2="785.1" y2="377.0" stroke="#7a7062" stroke-width="1" stroke-opacity="0.11"/>
<line x1="464.0" y1="393.0" x2="564.9" y2="393.0" stroke="#7a7062" stroke-width="1" stroke-opacity="0.18"/>
<line x1="570.7" y1="393.0" x2="706.7" y2="393.0" stroke="#7a7062" stroke-width="1" stroke-opacity="0.14"/>
<line x1="711.8" y1="393.0" x2="808.0" y2="393.0" stroke="#7a7062" stroke-width="1" stroke-opacity="0.24"/>
<line x1="488.5" y1="377.0" x2="488.5" y2="393.0" stroke="#7a7062" stroke-width="1" stroke-opacity="0.10"/>
<line x1="545.8" y1="377.0" x2="545.8" y2="393.0" stroke="#7a7062" stroke-width="1" stroke-opacity="0.12"/>
<line x1="603.1" y1="377.0" x2="603.1" y2="393.0" stroke="#7a7062" stroke-width="1" stroke-opacity="0.12"/>
<line x1="660.5" y1="377.0" x2="660.5" y2="393.0" stroke="#7a7062" stroke-width="1" stroke-opacity="0.10"/>
<line x1="717.8" y1="377.0" x2="717.8" y2="393.0" stroke="#7a7062" stroke-width="1" stroke-opacity="0.18"/>
<line x1="775.1" y1="377.0" x2="775.1" y2="393.0" stroke="#7a7062" stroke-width="1" stroke-opacity="0.16"/>
<line x1="464.0" y1="409.0" x2="553.5" y2="409.0" stroke="#7a7062" stroke-width="1" stroke-opacity="0.27"/>
<line x1="564.7" y1="409.0" x2="756.7" y2="409.0" stroke="#7a7062" stroke-width="1" stroke-opacity="0.20"/>
<line x1="778.9" y1="409.0" x2="808.0" y2="409.0" stroke="#7a7062" stroke-width="1" stroke-opacity="0.21"/>
<line x1="507.5" y1="393.0" x2="507.5" y2="409.0" stroke="#7a7062" stroke-width="1" stroke-opacity="0.14"/>
<line x1="564.8" y1="393.0" x2="564.8" y2="409.0" stroke="#7a7062" stroke-width="1" stroke-opacity="0.16"/>
<line x1="622.2" y1="393.0" x2="622.2" y2="409.0" stroke="#7a7062" stroke-width="1" stroke-opacity="0.12"/>
<line x1="679.5" y1="393.0" x2="679.5" y2="409.0" stroke="#7a7062" stroke-width="1" stroke-opacity="0.11"/>
<line x1="736.8" y1="393.0" x2="736.8" y2="409.0" stroke="#7a7062" stroke-width="1" stroke-opacity="0.16"/>
<line x1="794.2" y1="393.0" x2="794.2" y2="409.0" stroke="#7a7062" stroke-width="1" stroke-opacity="0.13"/>
<line x1="464.0" y1="425.0" x2="631.0" y2="425.0" stroke="#7a7062" stroke-width="1" stroke-opacity="0.26"/>
<line x1="652.1" y1="425.0" x2="808.0" y2="425.0" stroke="#7a7062" stroke-width="1" stroke-opacity="0.30"/>
<line x1="484.4" y1="409.0" x2="484.4" y2="425.0" stroke="#7a7062" stroke-width="1" stroke-opacity="0.18"/>
<line x1="541.7" y1="409.0" x2="541.7" y2="425.0" stroke="#7a7062" stroke-width="1" stroke-opacity="0.19"/>
<line x1="599.1" y1="409.0" x2="599.1" y2="425.0" stroke="#7a7062" stroke-width="1" stroke-opacity="0.14"/>
<line x1="656.4" y1="409.0" x2="656.4" y2="425.0" stroke="#7a7062" stroke-width="1" stroke-opacity="0.11"/>
<line x1="713.7" y1="409.0" x2="713.7" y2="425.0" stroke="#7a7062" stroke-width="1" stroke-opacity="0.13"/>
<line x1="771.1" y1="409.0" x2="771.1" y2="425.0" stroke="#7a7062" stroke-width="1" stroke-opacity="0.09"/>
<line x1="464.0" y1="441.0" x2="660.2" y2="441.0" stroke="#7a7062" stroke-width="1" stroke-opacity="0.24"/>
<line x1="678.4" y1="441.0" x2="808.0" y2="441.0" stroke="#7a7062" stroke-width="1" stroke-opacity="0.25"/>
<line x1="486.5" y1="425.0" x2="486.5" y2="441.0" stroke="#7a7062" stroke-width="1" stroke-opacity="0.18"/>
<line x1="543.8" y1="425.0" x2="543.8" y2="441.0" stroke="#7a7062" stroke-width="1" stroke-opacity="0.16"/>
<line x1="601.2" y1="425.0" x2="601.2" y2="441.0" stroke="#7a7062" stroke-width="1" stroke-opacity="0.15"/>
<line x1="658.5" y1="425.0" x2="658.5" y2="441.0" stroke="#7a7062" stroke-width="1" stroke-opacity="0.18"/>
<line x1="715.8" y1="425.0" x2="715.8" y2="441.0" stroke="#7a7062" stroke-width="1" stroke-opacity="0.15"/>
<line x1="773.2" y1="425.0" x2="773.2" y2="441.0" stroke="#7a7062" stroke-width="1" stroke-opacity="0.14"/>
<ellipse cx="738.0" cy="219.0" rx="8.1" ry="5.2" fill="#5d564c" fill-opacity="0.079"/>
<ellipse cx="601.9" cy="179.7" rx="11.9" ry="5.8" fill="#000000" fill-opacity="0.040"/>
<ellipse cx="689.6" cy="247.6" rx="4.3" ry="7.9" fill="#000000" fill-opacity="0.078"/>
<ellipse cx="520.4" cy="432.3" rx="6.5" ry="4.0" fill="#5d564c" fill-opacity="0.096"/>
<ellipse cx="604.5" cy="423.8" rx="6.0" ry="5.4" fill="#000000" fill-opacity="0.046"/>
<ellipse cx="734.4" cy="283.8" rx="7.0" ry="3.4" fill="#5d564c" fill-opacity="0.083"/>
<ellipse cx="720.3" cy="331.4" rx="4.9" ry="6.5" fill="#000000" fill-opacity="0.080"/>
<ellipse cx="599.8" cy="421.1" rx="6.5" ry="5.5" fill="#000000" fill-opacity="0.056"/>
<ellipse cx="489.9" cy="141.3" rx="12.2" ry="4.7" fill="#5d564c" fill-opacity="0.085"/>
<ellipse cx="526.3" cy="417.6" rx="11.5" ry="6.5" fill="#5d564c" fill-opacity="0.089"/>
<ellipse cx="694.9" cy="278.4" rx="7.8" ry="7.3" fill="#5d564c" fill-opacity="0.083"/>
<ellipse cx="806.4" cy="408.5" rx="10.2" ry="3.9" fill="#5d564c" fill-opacity="0.084"/>
<ellipse cx="530.3" cy="331.6" rx="4.9" ry="2.1" fill="#000000" fill-opacity="0.039"/>
<ellipse cx="780.5" cy="208.4" rx="11.0" ry="6.5" fill="#000000" fill-opacity="0.085"/>
<ellipse cx="768.6" cy="249.1" rx="9.2" ry="5.2" fill="#000000" fill-opacity="0.053"/>
<ellipse cx="516.4" cy="155.3" rx="3.9" ry="5.9" fill="#000000" fill-opacity="0.052"/>
<ellipse cx="567.6" cy="280.1" rx="9.6" ry="5.3" fill="#5d564c" fill-opacity="0.093"/>
<ellipse cx="655.8" cy="332.3" rx="3.6" ry="5.8" fill="#5d564c" fill-opacity="0.077"/>
<ellipse cx="778.2" cy="332.4" rx="4.0" ry="7.4" fill="#000000" fill-opacity="0.061"/>
<ellipse cx="778.7" cy="204.1" rx="4.5" ry="3.3" fill="#5d564c" fill-opacity="0.072"/>
<ellipse cx="725.2" cy="261.2" rx="12.9" ry="2.6" fill="#5d564c" fill-opacity="0.053"/>
<ellipse cx="633.2" cy="382.9" rx="7.2" ry="6.8" fill="#5d564c" fill-opacity="0.045"/>
<ellipse cx="601.8" cy="243.0" rx="8.6" ry="2.2" fill="#000000" fill-opacity="0.057"/>
<ellipse cx="653.6" cy="426.3" rx="11.3" ry="3.4" fill="#000000" fill-opacity="0.071"/>
<ellipse cx="499.0" cy="158.8" rx="10.6" ry="6.5" fill="#000000" fill-opacity="0.050"/>
<ellipse cx="526.4" cy="275.1" rx="3.2" ry="2.2" fill="#000000" fill-opacity="0.089"/>
<ellipse cx="789.4" cy="306.6" rx="3.0" ry="2.8" fill="#000000" fill-opacity="0.080"/>
<ellipse cx="663.1" cy="226.7" rx="12.7" ry="2.3" fill="#000000" fill-opacity="0.085"/>
<ellipse cx="716.0" cy="225.2" rx="7.0" ry="7.5" fill="#000000" fill-opacity="0.047"/>
<ellipse cx="622.7" cy="141.5" rx="11.2" ry="6.7" fill="#000000" fill-opacity="0.039"/>
<ellipse cx="720.7" cy="306.9" rx="10.5" ry="3.0" fill="#000000" fill-opacity="0.041"/>
<ellipse cx="533.1" cy="190.9" rx="7.0" ry="6.5" fill="#000000" fill-opacity="0.054"/>
<ellipse cx="587.0" cy="209.6" rx="6.7" ry="2.4" fill="#000000" fill-opacity="0.041"/>
<ellipse cx="677.7" cy="187.3" rx="10.6" ry="2.8" fill="#000000" fill-opacity="0.093"/>
<ellipse cx="485.4" cy="372.9" rx="12.7" ry="5.2" fill="#000000" fill-opacity="0.050"/>
<ellipse cx="682.4" cy="331.2" rx="11.4" ry="7.2" fill="#000000" fill-opacity="0.073"/>
<ellipse cx="802.5" cy="309.3" rx="8.7" ry="3.6" fill="#000000" fill-opacity="0.078"/>
<ellipse cx="631.1" cy="321.2" rx="5.2" ry="4.6" fill="#5d564c" fill-opacity="0.092"/>
<ellipse cx="624.4" cy="178.5" rx="4.8" ry="5.9" fill="#000000" fill-opacity="0.088"/>
<ellipse cx="581.8" cy="207.2" rx="5.2" ry="5.2" fill="#5d564c" fill-opacity="0.057"/>
<ellipse cx="686.8" cy="346.3" rx="12.9" ry="7.1" fill="#000000" fill-opacity="0.081"/>
<ellipse cx="501.3" cy="416.0" rx="3.0" ry="7.8" fill="#5d564c" fill-opacity="0.068"/>
<ellipse cx="577.7" cy="384.2" rx="10.8" ry="7.3" fill="#000000" fill-opacity="0.049"/>
<ellipse cx="509.1" cy="178.7" rx="5.0" ry="4.1" fill="#5d564c" fill-opacity="0.081"/>
<ellipse cx="645.7" cy="238.4" rx="9.3" ry="2.1" fill="#5d564c" fill-opacity="0.072"/>
<ellipse cx="674.3" cy="309.2" rx="10.6" ry="6.1" fill="#000000" fill-opacity="0.051"/>
</g>
<rect x="464.0" y="137.0" width="344" height="2.5" fill="#7a7062" fill-opacity="0.30"/>
<rect x="522.0" y="195.0" width="85.0" height="194" fill="url(#ic-v7-d)"/>
<rect x="522.0" y="195.0" width="85.0" height="2" fill="#7a7062" fill-opacity="0.20"/>
<rect x="522.0" y="195.0" width="85.0" height="194" fill="none" stroke="#000" stroke-width="1" stroke-opacity="0.55"/>
<rect x="665.0" y="195.0" width="85.0" height="194" fill="url(#ic-v7-d)"/>
<rect x="665.0" y="195.0" width="85.0" height="2" fill="#7a7062" fill-opacity="0.20"/>
<rect x="665.0" y="195.0" width="85.0" height="194" fill="none" stroke="#000" stroke-width="1" stroke-opacity="0.55"/>
<rect x="463.0" y="272.8" width="60" height="23.4" fill="#0a0908"/>
<rect x="749.0" y="272.8" width="60" height="23.4" fill="#0a0908"/>
<rect x="551.5" y="279.0" width="26" height="26" fill="#d4a03c"/>
<rect x="548.5" y="276.0" width="32" height="32" fill="none" stroke="#d4a03c" stroke-width="1" stroke-opacity="0.30"/>
<rect x="694.5" y="279.0" width="26" height="26" fill="#d4a03c"/>
<rect x="691.5" y="276.0" width="32" height="32" fill="none" stroke="#d4a03c" stroke-width="1" stroke-opacity="0.30"/>
<linearGradient id="sinama-v7-d" gradientUnits="userSpaceOnUse" x1="166" y1="250.2" x2="564.5" y2="292.0"><stop offset="0%" stop-color="#e8c887"/><stop offset="100%" stop-color="#d4a03c"/></linearGradient>
<line x1="564.5" y1="292.0" x2="166.0" y2="250.2" stroke="url(#sinama-v7-d)" stroke-width="6.2" stroke-opacity="0.1" stroke-linecap="round"/>
<line x1="564.5" y1="292.0" x2="166.0" y2="250.2" stroke="url(#sinama-v7-d)" stroke-width="3.2" stroke-linecap="round"/>
<line x1="163.5" y1="237.2" x2="163.5" y2="263.2" stroke="#e8c887" stroke-width="5.4" stroke-linecap="round" stroke-opacity="0.95"/>
<line x1="707.5" y1="292.0" x2="734.2" y2="289.2" stroke="#d4a03c" stroke-width="3.20" stroke-opacity="1.000" stroke-linecap="round"/>
<line x1="734.2" y1="289.2" x2="760.9" y2="286.4" stroke="#d4a03c" stroke-width="2.94" stroke-opacity="0.950" stroke-linecap="round"/>
<line x1="760.9" y1="286.4" x2="787.6" y2="283.6" stroke="#d4a03c" stroke-width="2.68" stroke-opacity="0.881" stroke-linecap="round"/>
<line x1="787.6" y1="283.6" x2="814.3" y2="280.8" stroke="#d4a03c" stroke-width="2.41" stroke-opacity="0.803" stroke-linecap="round"/>
<line x1="814.3" y1="280.8" x2="841.0" y2="278.0" stroke="#d4a03c" stroke-width="2.15" stroke-opacity="0.718" stroke-linecap="round"/>
<line x1="841.0" y1="278.0" x2="867.8" y2="275.2" stroke="#d4a03c" stroke-width="1.89" stroke-opacity="0.627" stroke-linecap="round"/>
<line x1="867.8" y1="275.2" x2="894.5" y2="272.4" stroke="#d4a03c" stroke-width="1.63" stroke-opacity="0.531" stroke-linecap="round"/>
<line x1="894.5" y1="272.4" x2="921.2" y2="269.6" stroke="#d4a03c" stroke-width="1.37" stroke-opacity="0.432" stroke-linecap="round"/>
<line x1="921.2" y1="269.6" x2="947.9" y2="266.8" stroke="#d4a03c" stroke-width="1.11" stroke-opacity="0.328" stroke-linecap="round"/>
<line x1="947.9" y1="266.8" x2="974.6" y2="264.0" stroke="#d4a03c" stroke-width="0.84" stroke-opacity="0.222" stroke-linecap="round"/>
<line x1="974.6" y1="264.0" x2="1001.3" y2="261.2" stroke="#d4a03c" stroke-width="0.58" stroke-opacity="0.112" stroke-linecap="round"/>
<line x1="1001.3" y1="261.2" x2="1028.0" y2="258.3" stroke="#d4a03c" stroke-width="0.51" stroke-opacity="0.000" stroke-linecap="round"/>
<rect width="1240" height="560" filter="url(#gren-v7-d)" style="mix-blend-mode:overlay" opacity="0.70"/>
</svg>