<svg xmlns="http://www.w3.org/2000/svg" width="720" height="560" viewBox="0 0 720 560" role="img">
<defs>
<radialGradient id="zemin-v7-m" cx="50%" cy="52%" r="72%"><stop offset="0%" stop-color="#16110c"/><stop offset="100%" stop-color="#000000"/></radialGradient>
<linearGradient id="tas-v7-m" x1="0" y1="0" x2="0" y2="1"><stop offset="0%" stop-color="#33302b"/><stop offset="100%" stop-color="#1a1815"/></linearGradient>
<linearGradient id="ic-v7-m" x1="0" y1="0" x2="0" y2="1"><stop offset="0%" stop-color="#1e1811"/><stop offset="44%" stop-color="#0c0a08"/><stop offset="100%" stop-color="#040403"/></linearGradient>
<filter id="gren-v7-m" x="0" y="0" width="100%" height="100%"><feTurbulence type="fractalNoise" baseFrequency="0.66" numOctaves="3" stitchTiles="stitch" result="n"/><feColorMatrix type="saturate" values="0" in="n" result="ng"/><feComponentTransfer in="ng"><feFuncA type="linear" slope="0.08"/></feComponentTransfer></filter>
</defs>
<rect width="720" height="560" fill="url(#zemin-v7-m)"/>
<rect x="48" y="142" width="38" height="316" fill="url(#tas-v7-m)" stroke="#5d564c" stroke-width="1.4"/>
<clipPath id="cl-yuzey-v7-m"><rect x="48" y="142" width="38" height="316"/></clipPath>
<g clip-path="url(#cl-yuzey-v7-m)">
<line x1="48.0" y1="157.0" x2="68.0" y2="157.0" stroke="#7a7062" stroke-width="1" stroke-opacity="0.28"/>
<line x1="69.5" y1="157.0" x2="84.6" y2="157.0" stroke="#7a7062" stroke-width="1" stroke-opacity="0.18"/>
<line x1="57.8" y1="142.0" x2="57.8" y2="157.0" stroke="#7a7062" stroke-width="1" stroke-opacity="0.09"/>
<line x1="48.0" y1="172.0" x2="67.4" y2="172.0" stroke="#7a7062" stroke-width="1" stroke-opacity="0.17"/>
<line x1="70.2" y1="172.0" x2="86.0" y2="172.0" stroke="#7a7062" stroke-width="1" stroke-opacity="0.19"/>
<line x1="74.5" y1="157.0" x2="74.5" y2="172.0" stroke="#7a7062" stroke-width="1" stroke-opacity="0.20"/>
<line x1="48.0" y1="187.0" x2="65.3" y2="187.0" stroke="#7a7062" stroke-width="1" stroke-opacity="0.32"/>
<line x1="67.4" y1="187.0" x2="83.9" y2="187.0" stroke="#7a7062" stroke-width="1" stroke-opacity="0.20"/>
<line x1="72.1" y1="172.0" x2="72.1" y2="187.0" stroke="#7a7062" stroke-width="1" stroke-opacity="0.14"/>
<line x1="48.0" y1="202.0" x2="66.8" y2="202.0" stroke="#7a7062" stroke-width="1" stroke-opacity="0.34"/>
<line x1="69.9" y1="202.0" x2="86.0" y2="202.0" stroke="#7a7062" stroke-width="1" stroke-opacity="0.26"/>
<line x1="75.1" y1="187.0" x2="75.1" y2="202.0" stroke="#7a7062" stroke-width="1" stroke-opacity="0.14"/>
<line x1="48.0" y1="217.0" x2="68.6" y2="217.0" stroke="#7a7062" stroke-width="1" stroke-opacity="0.16"/>
<line x1="71.8" y1="217.0" x2="81.0" y2="217.0" stroke="#7a7062" stroke-width="1" stroke-opacity="0.28"/>
<line x1="83.2" y1="217.0" x2="86.0" y2="217.0" stroke="#7a7062" stroke-width="1" stroke-opacity="0.27"/>
<line x1="71.7" y1="202.0" x2="71.7" y2="217.0" stroke="#7a7062" stroke-width="1" stroke-opacity="0.10"/>
<line x1="48.0" y1="232.0" x2="66.7" y2="232.0" stroke="#7a7062" stroke-width="1" stroke-opacity="0.34"/>
<line x1="68.9" y1="232.0" x2="76.7" y2="232.0" stroke="#7a7062" stroke-width="1" stroke-opacity="0.21"/>
<line x1="79.8" y1="232.0" x2="86.0" y2="232.0" stroke="#7a7062" stroke-width="1" stroke-opacity="0.18"/>
<line x1="69.7" y1="217.0" x2="69.7" y2="232.0" stroke="#7a7062" stroke-width="1" stroke-opacity="0.13"/>
<line x1="48.0" y1="247.0" x2="68.6" y2="247.0" stroke="#7a7062" stroke-width="1" stroke-opacity="0.29"/>
<line x1="70.6" y1="247.0" x2="80.8" y2="247.0" stroke="#7a7062" stroke-width="1" stroke-opacity="0.32"/>
<line x1="83.8" y1="247.0" x2="86.0" y2="247.0" stroke="#7a7062" stroke-width="1" stroke-opacity="0.29"/>
<line x1="54.3" y1="232.0" x2="54.3" y2="247.0" stroke="#7a7062" stroke-width="1" stroke-opacity="0.17"/>
<line x1="48.0" y1="262.0" x2="58.9" y2="262.0" stroke="#7a7062" stroke-width="1" stroke-opacity="0.15"/>
<line x1="60.4" y1="262.0" x2="82.0" y2="262.0" stroke="#7a7062" stroke-width="1" stroke-opacity="0.22"/>
<line x1="83.9" y1="262.0" x2="86.0" y2="262.0" stroke="#7a7062" stroke-width="1" stroke-opacity="0.28"/>
<line x1="71.6" y1="247.0" x2="71.6" y2="262.0" stroke="#7a7062" stroke-width="1" stroke-opacity="0.21"/>
<line x1="48.0" y1="277.0" x2="65.9" y2="277.0" stroke="#7a7062" stroke-width="1" stroke-opacity="0.19"/>
<line x1="67.9" y1="277.0" x2="86.0" y2="277.0" stroke="#7a7062" stroke-width="1" stroke-opacity="0.22"/>
<line x1="63.8" y1="262.0" x2="63.8" y2="277.0" stroke="#7a7062" stroke-width="1" stroke-opacity="0.11"/>
<line x1="48.0" y1="292.0" x2="56.8" y2="292.0" stroke="#7a7062" stroke-width="1" stroke-opacity="0.36"/>
<line x1="58.7" y1="292.0" x2="69.1" y2="292.0" stroke="#7a7062" stroke-width="1" stroke-opacity="0.36"/>
<line x1="71.5" y1="292.0" x2="86.0" y2="292.0" stroke="#7a7062" stroke-width="1" stroke-opacity="0.19"/>
<line x1="68.0" y1="277.0" x2="68.0" y2="292.0" stroke="#7a7062" stroke-width="1" stroke-opacity="0.16"/>
<line x1="48.0" y1="307.0" x2="57.4" y2="307.0" stroke="#7a7062" stroke-width="1" stroke-opacity="0.15"/>
<line x1="59.9" y1="307.0" x2="77.1" y2="307.0" stroke="#7a7062" stroke-width="1" stroke-opacity="0.23"/>
<line x1="79.9" y1="307.0" x2="86.0" y2="307.0" stroke="#7a7062" stroke-width="1" stroke-opacity="0.31"/>
<line x1="61.2" y1="292.0" x2="61.2" y2="307.0" stroke="#7a7062" stroke-width="1" stroke-opacity="0.09"/>
<line x1="48.0" y1="322.0" x2="66.0" y2="322.0" stroke="#7a7062" stroke-width="1" stroke-opacity="0.34"/>
<line x1="68.3" y1="322.0" x2="86.0" y2="322.0" stroke="#7a7062" stroke-width="1" stroke-opacity="0.32"/>
<line x1="60.9" y1="307.0" x2="60.9" y2="322.0" stroke="#7a7062" stroke-width="1" stroke-opacity="0.20"/>
<line x1="48.0" y1="337.0" x2="62.6" y2="337.0" stroke="#7a7062" stroke-width="1" stroke-opacity="0.34"/>
<line x1="64.9" y1="337.0" x2="86.0" y2="337.0" stroke="#7a7062" stroke-width="1" stroke-opacity="0.32"/>
<line x1="54.7" y1="322.0" x2="54.7" y2="337.0" stroke="#7a7062" stroke-width="1" stroke-opacity="0.09"/>
<line x1="48.0" y1="352.0" x2="70.8" y2="352.0" stroke="#7a7062" stroke-width="1" stroke-opacity="0.21"/>
<line x1="73.9" y1="352.0" x2="83.7" y2="352.0" stroke="#7a7062" stroke-width="1" stroke-opacity="0.29"/>
<line x1="73.6" y1="337.0" x2="73.6" y2="352.0" stroke="#7a7062" stroke-width="1" stroke-opacity="0.10"/>
<line x1="48.0" y1="367.0" x2="67.9" y2="367.0" stroke="#7a7062" stroke-width="1" stroke-opacity="0.16"/>
<line x1="69.6" y1="367.0" x2="85.5" y2="367.0" stroke="#7a7062" stroke-width="1" stroke-opacity="0.27"/>
<line x1="65.8" y1="352.0" x2="65.8" y2="367.0" stroke="#7a7062" stroke-width="1" stroke-opacity="0.09"/>
<line x1="48.0" y1="382.0" x2="60.5" y2="382.0" stroke="#7a7062" stroke-width="1" stroke-opacity="0.35"/>
<line x1="63.2" y1="382.0" x2="79.5" y2="382.0" stroke="#7a7062" stroke-width="1" stroke-opacity="0.14"/>
<line x1="81.5" y1="382.0" x2="86.0" y2="382.0" stroke="#7a7062" stroke-width="1" stroke-opacity="0.18"/>
<line x1="73.2" y1="367.0" x2="73.2" y2="382.0" stroke="#7a7062" stroke-width="1" stroke-opacity="0.13"/>
<line x1="48.0" y1="397.0" x2="68.7" y2="397.0" stroke="#7a7062" stroke-width="1" stroke-opacity="0.30"/>
<line x1="71.7" y1="397.0" x2="86.0" y2="397.0" stroke="#7a7062" stroke-width="1" stroke-opacity="0.36"/>
<line x1="66.6" y1="382.0" x2="66.6" y2="397.0" stroke="#7a7062" stroke-width="1" stroke-opacity="0.13"/>
<line x1="48.0" y1="412.0" x2="56.3" y2="412.0" stroke="#7a7062" stroke-width="1" stroke-opacity="0.22"/>
<line x1="58.3" y1="412.0" x2="74.7" y2="412.0" stroke="#7a7062" stroke-width="1" stroke-opacity="0.30"/>
<line x1="76.8" y1="412.0" x2="86.0" y2="412.0" stroke="#7a7062" stroke-width="1" stroke-opacity="0.14"/>
<line x1="60.3" y1="397.0" x2="60.3" y2="412.0" stroke="#7a7062" stroke-width="1" stroke-opacity="0.11"/>
<line x1="48.0" y1="427.0" x2="57.2" y2="427.0" stroke="#7a7062" stroke-width="1" stroke-opacity="0.22"/>
<line x1="59.1" y1="427.0" x2="73.0" y2="427.0" stroke="#7a7062" stroke-width="1" stroke-opacity="0.28"/>
<line x1="76.4" y1="427.0" x2="86.0" y2="427.0" stroke="#7a7062" stroke-width="1" stroke-opacity="0.24"/>
<line x1="57.1" y1="412.0" x2="57.1" y2="427.0" stroke="#7a7062" stroke-width="1" stroke-opacity="0.12"/>
<line x1="48.0" y1="442.0" x2="71.1" y2="442.0" stroke="#7a7062" stroke-width="1" stroke-opacity="0.29"/>
<line x1="72.9" y1="442.0" x2="86.0" y2="442.0" stroke="#7a7062" stroke-width="1" stroke-opacity="0.27"/>
<line x1="60.4" y1="427.0" x2="60.4" y2="442.0" stroke="#7a7062" stroke-width="1" stroke-opacity="0.12"/>
<ellipse cx="70.7" cy="283.1" rx="10.3" ry="6.9" fill="#000000" fill-opacity="0.067"/>
<ellipse cx="64.2" cy="323.3" rx="10.1" ry="2.5" fill="#5d564c" fill-opacity="0.083"/>
<ellipse cx="59.8" cy="326.3" rx="8.4" ry="2.4" fill="#000000" fill-opacity="0.068"/>
<ellipse cx="54.2" cy="289.0" rx="12.7" ry="5.5" fill="#000000" fill-opacity="0.087"/>
<ellipse cx="82.4" cy="385.7" rx="4.9" ry="7.5" fill="#5d564c" fill-opacity="0.064"/>
</g>
<g opacity="0.17">
<rect x="634" y="142" width="38" height="316" fill="url(#tas-v7-m)" stroke="#5d564c" stroke-width="1.2" stroke-dasharray="7 9"/>
<clipPath id="cl-hayalet-v7-m"><rect x="634" y="142" width="38" height="316"/></clipPath>
<g clip-path="url(#cl-hayalet-v7-m)">
<line x1="634.0" y1="157.0" x2="654.0" y2="157.0" stroke="#7a7062" stroke-width="1" stroke-opacity="0.28"/>
<line x1="655.5" y1="157.0" x2="670.6" y2="157.0" stroke="#7a7062" stroke-width="1" stroke-opacity="0.18"/>
<line x1="643.8" y1="142.0" x2="643.8" y2="157.0" stroke="#7a7062" stroke-width="1" stroke-opacity="0.09"/>
<line x1="634.0" y1="172.0" x2="653.4" y2="172.0" stroke="#7a7062" stroke-width="1" stroke-opacity="0.17"/>
<line x1="656.2" y1="172.0" x2="672.0" y2="172.0" stroke="#7a7062" stroke-width="1" stroke-opacity="0.19"/>
<line x1="660.5" y1="157.0" x2="660.5" y2="172.0" stroke="#7a7062" stroke-width="1" stroke-opacity="0.20"/>
<line x1="634.0" y1="187.0" x2="651.3" y2="187.0" stroke="#7a7062" stroke-width="1" stroke-opacity="0.32"/>
<line x1="653.4" y1="187.0" x2="669.9" y2="187.0" stroke="#7a7062" stroke-width="1" stroke-opacity="0.20"/>
<line x1="658.1" y1="172.0" x2="658.1" y2="187.0" stroke="#7a7062" stroke-width="1" stroke-opacity="0.14"/>
<line x1="634.0" y1="202.0" x2="652.8" y2="202.0" stroke="#7a7062" stroke-width="1" stroke-opacity="0.34"/>
<line x1="655.9" y1="202.0" x2="672.0" y2="202.0" stroke="#7a7062" stroke-width="1" stroke-opacity="0.26"/>
<line x1="661.1" y1="187.0" x2="661.1" y2="202.0" stroke="#7a7062" stroke-width="1" stroke-opacity="0.14"/>
<line x1="634.0" y1="217.0" x2="654.6" y2="217.0" stroke="#7a7062" stroke-width="1" stroke-opacity="0.16"/>
<line x1="657.8" y1="217.0" x2="667.0" y2="217.0" stroke="#7a7062" stroke-width="1" stroke-opacity="0.28"/>
<line x1="669.2" y1="217.0" x2="672.0" y2="217.0" stroke="#7a7062" stroke-width="1" stroke-opacity="0.27"/>
<line x1="657.7" y1="202.0" x2="657.7" y2="217.0" stroke="#7a7062" stroke-width="1" stroke-opacity="0.10"/>
<line x1="634.0" y1="232.0" x2="652.7" y2="232.0" stroke="#7a7062" stroke-width="1" stroke-opacity="0.34"/>
<line x1="654.9" y1="232.0" x2="662.7" y2="232.0" stroke="#7a7062" stroke-width="1" stroke-opacity="0.21"/>
<line x1="665.8" y1="232.0" x2="672.0" y2="232.0" stroke="#7a7062" stroke-width="1" stroke-opacity="0.18"/>
<line x1="655.7" y1="217.0" x2="655.7" y2="232.0" stroke="#7a7062" stroke-width="1" stroke-opacity="0.13"/>
<line x1="634.0" y1="247.0" x2="654.6" y2="247.0" stroke="#7a7062" stroke-width="1" stroke-opacity="0.29"/>
<line x1="656.6" y1="247.0" x2="666.8" y2="247.0" stroke="#7a7062" stroke-width="1" stroke-opacity="0.32"/>
<line x1="669.8" y1="247.0" x2="672.0" y2="247.0" stroke="#7a7062" stroke-width="1" stroke-opacity="0.29"/>
<line x1="640.3" y1="232.0" x2="640.3" y2="247.0" stroke="#7a7062" stroke-width="1" stroke-opacity="0.17"/>
<line x1="634.0" y1="262.0" x2="644.9" y2="262.0" stroke="#7a7062" stroke-width="1" stroke-opacity="0.15"/>
<line x1="646.4" y1="262.0" x2="668.0" y2="262.0" stroke="#7a7062" stroke-width="1" stroke-opacity="0.22"/>
<line x1="669.9" y1="262.0" x2="672.0" y2="262.0" stroke="#7a7062" stroke-width="1" stroke-opacity="0.28"/>
<line x1="657.6" y1="247.0" x2="657.6" y2="262.0" stroke="#7a7062" stroke-width="1" stroke-opacity="0.21"/>
<line x1="634.0" y1="277.0" x2="651.9" y2="277.0" stroke="#7a7062" stroke-width="1" stroke-opacity="0.19"/>
<line x1="653.9" y1="277.0" x2="672.0" y2="277.0" stroke="#7a7062" stroke-width="1" stroke-opacity="0.22"/>
<line x1="649.8" y1="262.0" x2="649.8" y2="277.0" stroke="#7a7062" stroke-width="1" stroke-opacity="0.11"/>
<line x1="634.0" y1="292.0" x2="642.8" y2="292.0" stroke="#7a7062" stroke-width="1" stroke-opacity="0.36"/>
<line x1="644.7" y1="292.0" x2="655.1" y2="292.0" stroke="#7a7062" stroke-width="1" stroke-opacity="0.36"/>
<line x1="657.5" y1="292.0" x2="672.0" y2="292.0" stroke="#7a7062" stroke-width="1" stroke-opacity="0.19"/>
<line x1="654.0" y1="277.0" x2="654.0" y2="292.0" stroke="#7a7062" stroke-width="1" stroke-opacity="0.16"/>
<line x1="634.0" y1="307.0" x2="643.4" y2="307.0" stroke="#7a7062" stroke-width="1" stroke-opacity="0.15"/>
<line x1="645.9" y1="307.0" x2="663.1" y2="307.0" stroke="#7a7062" stroke-width="1" stroke-opacity="0.23"/>
<line x1="665.9" y1="307.0" x2="672.0" y2="307.0" stroke="#7a7062" stroke-width="1" stroke-opacity="0.31"/>
<line x1="647.2" y1="292.0" x2="647.2" y2="307.0" stroke="#7a7062" stroke-width="1" stroke-opacity="0.09"/>
<line x1="634.0" y1="322.0" x2="652.0" y2="322.0" stroke="#7a7062" stroke-width="1" stroke-opacity="0.34"/>
<line x1="654.3" y1="322.0" x2="672.0" y2="322.0" stroke="#7a7062" stroke-width="1" stroke-opacity="0.32"/>
<line x1="646.9" y1="307.0" x2="646.9" y2="322.0" stroke="#7a7062" stroke-width="1" stroke-opacity="0.20"/>
<line x1="634.0" y1="337.0" x2="648.6" y2="337.0" stroke="#7a7062" stroke-width="1" stroke-opacity="0.34"/>
<line x1="650.9" y1="337.0" x2="672.0" y2="337.0" stroke="#7a7062" stroke-width="1" stroke-opacity="0.32"/>
<line x1="640.7" y1="322.0" x2="640.7" y2="337.0" stroke="#7a7062" stroke-width="1" stroke-opacity="0.09"/>
<line x1="634.0" y1="352.0" x2="656.8" y2="352.0" stroke="#7a7062" stroke-width="1" stroke-opacity="0.21"/>
<line x1="659.9" y1="352.0" x2="669.7" y2="352.0" stroke="#7a7062" stroke-width="1" stroke-opacity="0.29"/>
<line x1="659.6" y1="337.0" x2="659.6" y2="352.0" stroke="#7a7062" stroke-width="1" stroke-opacity="0.10"/>
<line x1="634.0" y1="367.0" x2="653.9" y2="367.0" stroke="#7a7062" stroke-width="1" stroke-opacity="0.16"/>
<line x1="655.6" y1="367.0" x2="671.5" y2="367.0" stroke="#7a7062" stroke-width="1" stroke-opacity="0.27"/>
<line x1="651.8" y1="352.0" x2="651.8" y2="367.0" stroke="#7a7062" stroke-width="1" stroke-opacity="0.09"/>
<line x1="634.0" y1="382.0" x2="646.5" y2="382.0" stroke="#7a7062" stroke-width="1" stroke-opacity="0.35"/>
<line x1="649.2" y1="382.0" x2="665.5" y2="382.0" stroke="#7a7062" stroke-width="1" stroke-opacity="0.14"/>
<line x1="667.5" y1="382.0" x2="672.0" y2="382.0" stroke="#7a7062" stroke-width="1" stroke-opacity="0.18"/>
<line x1="659.2" y1="367.0" x2="659.2" y2="382.0" stroke="#7a7062" stroke-width="1" stroke-opacity="0.13"/>
<line x1="634.0" y1="397.0" x2="654.7" y2="397.0" stroke="#7a7062" stroke-width="1" stroke-opacity="0.30"/>
<line x1="657.7" y1="397.0" x2="672.0" y2="397.0" stroke="#7a7062" stroke-width="1" stroke-opacity="0.36"/>
<line x1="652.6" y1="382.0" x2="652.6" y2="397.0" stroke="#7a7062" stroke-width="1" stroke-opacity="0.13"/>
<line x1="634.0" y1="412.0" x2="642.3" y2="412.0" stroke="#7a7062" stroke-width="1" stroke-opacity="0.22"/>
<line x1="644.3" y1="412.0" x2="660.7" y2="412.0" stroke="#7a7062" stroke-width="1" stroke-opacity="0.30"/>
<line x1="662.8" y1="412.0" x2="672.0" y2="412.0" stroke="#7a7062" stroke-width="1" stroke-opacity="0.14"/>
<line x1="646.3" y1="397.0" x2="646.3" y2="412.0" stroke="#7a7062" stroke-width="1" stroke-opacity="0.11"/>
<line x1="634.0" y1="427.0" x2="643.2" y2="427.0" stroke="#7a7062" stroke-width="1" stroke-opacity="0.22"/>
<line x1="645.1" y1="427.0" x2="659.0" y2="427.0" stroke="#7a7062" stroke-width="1" stroke-opacity="0.28"/>
<line x1="662.4" y1="427.0" x2="672.0" y2="427.0" stroke="#7a7062" stroke-width="1" stroke-opacity="0.24"/>
<line x1="643.1" y1="412.0" x2="643.1" y2="427.0" stroke="#7a7062" stroke-width="1" stroke-opacity="0.12"/>
<line x1="634.0" y1="442.0" x2="657.1" y2="442.0" stroke="#7a7062" stroke-width="1" stroke-opacity="0.29"/>
<line x1="658.9" y1="442.0" x2="672.0" y2="442.0" stroke="#7a7062" stroke-width="1" stroke-opacity="0.27"/>
<line x1="646.4" y1="427.0" x2="646.4" y2="442.0" stroke="#7a7062" stroke-width="1" stroke-opacity="0.12"/>
<ellipse cx="656.7" cy="283.1" rx="10.3" ry="6.9" fill="#000000" fill-opacity="0.067"/>
<ellipse cx="650.2" cy="323.3" rx="10.1" ry="2.5" fill="#5d564c" fill-opacity="0.083"/>
<ellipse cx="645.8" cy="326.3" rx="8.4" ry="2.4" fill="#000000" fill-opacity="0.068"/>
<ellipse cx="640.2" cy="289.0" rx="12.7" ry="5.5" fill="#000000" fill-opacity="0.087"/>
<ellipse cx="668.4" cy="385.7" rx="4.9" ry="7.5" fill="#5d564c" fill-opacity="0.064"/>
</g>
</g>
<rect x="253.0" y="160.0" width="254" height="272" fill="url(#tas-v7-m)" stroke="#5d564c" stroke-width="1.6"/>
<clipPath id="cl-govde-v7-m"><rect x="253.0" y="160.0" width="254" height="272"/></clipPath>
<g clip-path="url(#cl-govde-v7-m)">
<line x1="253.0" y1="175.0" x2="380.5" y2="175.0" stroke="#7a7062" stroke-width="1" stroke-opacity="0.28"/>
<line x1="392.7" y1="175.0" x2="500.6" y2="175.0" stroke="#7a7062" stroke-width="1" stroke-opacity="0.25"/>
<line x1="284.9" y1="160.0" x2="284.9" y2="175.0" stroke="#7a7062" stroke-width="1" stroke-opacity="0.16"/>
<line x1="348.4" y1="160.0" x2="348.4" y2="175.0" stroke="#7a7062" stroke-width="1" stroke-opacity="0.14"/>
<line x1="411.9" y1="160.0" x2="411.9" y2="175.0" stroke="#7a7062" stroke-width="1" stroke-opacity="0.14"/>
<line x1="475.4" y1="160.0" x2="475.4" y2="175.0" stroke="#7a7062" stroke-width="1" stroke-opacity="0.11"/>
<line x1="253.0" y1="190.0" x2="333.5" y2="190.0" stroke="#7a7062" stroke-width="1" stroke-opacity="0.27"/>
<line x1="354.3" y1="190.0" x2="426.6" y2="190.0" stroke="#7a7062" stroke-width="1" stroke-opacity="0.22"/>
<line x1="429.5" y1="190.0" x2="507.0" y2="190.0" stroke="#7a7062" stroke-width="1" stroke-opacity="0.24"/>
<line x1="272.3" y1="175.0" x2="272.3" y2="190.0" stroke="#7a7062" stroke-width="1" stroke-opacity="0.15"/>
<line x1="335.8" y1="175.0" x2="335.8" y2="190.0" stroke="#7a7062" stroke-width="1" stroke-opacity="0.17"/>
<line x1="399.3" y1="175.0" x2="399.3" y2="190.0" stroke="#7a7062" stroke-width="1" stroke-opacity="0.14"/>
<line x1="462.8" y1="175.0" x2="462.8" y2="190.0" stroke="#7a7062" stroke-width="1" stroke-opacity="0.11"/>
<line x1="253.0" y1="205.0" x2="333.3" y2="205.0" stroke="#7a7062" stroke-width="1" stroke-opacity="0.32"/>
<line x1="353.6" y1="205.0" x2="477.1" y2="205.0" stroke="#7a7062" stroke-width="1" stroke-opacity="0.20"/>
<line x1="494.3" y1="205.0" x2="507.0" y2="205.0" stroke="#7a7062" stroke-width="1" stroke-opacity="0.27"/>
<line x1="301.8" y1="190.0" x2="301.8" y2="205.0" stroke="#7a7062" stroke-width="1" stroke-opacity="0.17"/>
<line x1="365.3" y1="190.0" x2="365.3" y2="205.0" stroke="#7a7062" stroke-width="1" stroke-opacity="0.10"/>
<line x1="428.8" y1="190.0" x2="428.8" y2="205.0" stroke="#7a7062" stroke-width="1" stroke-opacity="0.11"/>
<line x1="492.3" y1="190.0" x2="492.3" y2="205.0" stroke="#7a7062" stroke-width="1" stroke-opacity="0.18"/>
<line x1="253.0" y1="220.0" x2="323.5" y2="220.0" stroke="#7a7062" stroke-width="1" stroke-opacity="0.22"/>
<line x1="342.7" y1="220.0" x2="443.7" y2="220.0" stroke="#7a7062" stroke-width="1" stroke-opacity="0.27"/>
<line x1="461.0" y1="220.0" x2="507.0" y2="220.0" stroke="#7a7062" stroke-width="1" stroke-opacity="0.21"/>
<line x1="262.7" y1="205.0" x2="262.7" y2="220.0" stroke="#7a7062" stroke-width="1" stroke-opacity="0.17"/>
<line x1="326.2" y1="205.0" x2="326.2" y2="220.0" stroke="#7a7062" stroke-width="1" stroke-opacity="0.16"/>
<line x1="389.7" y1="205.0" x2="389.7" y2="220.0" stroke="#7a7062" stroke-width="1" stroke-opacity="0.15"/>
<line x1="453.2" y1="205.0" x2="453.2" y2="220.0" stroke="#7a7062" stroke-width="1" stroke-opacity="0.12"/>
<line x1="253.0" y1="235.0" x2="404.8" y2="235.0" stroke="#7a7062" stroke-width="1" stroke-opacity="0.19"/>
<line x1="415.6" y1="235.0" x2="496.5" y2="235.0" stroke="#7a7062" stroke-width="1" stroke-opacity="0.15"/>
<line x1="266.3" y1="220.0" x2="266.3" y2="235.0" stroke="#7a7062" stroke-width="1" stroke-opacity="0.13"/>
<line x1="329.8" y1="220.0" x2="329.8" y2="235.0" stroke="#7a7062" stroke-width="1" stroke-opacity="0.16"/>
<line x1="393.3" y1="220.0" x2="393.3" y2="235.0" stroke="#7a7062" stroke-width="1" stroke-opacity="0.17"/>
<line x1="456.8" y1="220.0" x2="456.8" y2="235.0" stroke="#7a7062" stroke-width="1" stroke-opacity="0.16"/>
<line x1="253.0" y1="250.0" x2="359.6" y2="250.0" stroke="#7a7062" stroke-width="1" stroke-opacity="0.18"/>
<line x1="371.6" y1="250.0" x2="465.2" y2="250.0" stroke="#7a7062" stroke-width="1" stroke-opacity="0.20"/>
<line x1="474.5" y1="250.0" x2="507.0" y2="250.0" stroke="#7a7062" stroke-width="1" stroke-opacity="0.31"/>
<line x1="264.9" y1="235.0" x2="264.9" y2="250.0" stroke="#7a7062" stroke-width="1" stroke-opacity="0.16"/>
<line x1="328.4" y1="235.0" x2="328.4" y2="250.0" stroke="#7a7062" stroke-width="1" stroke-opacity="0.19"/>
<line x1="391.9" y1="235.0" x2="391.9" y2="250.0" stroke="#7a7062" stroke-width="1" stroke-opacity="0.16"/>
<line x1="455.4" y1="235.0" x2="455.4" y2="250.0" stroke="#7a7062" stroke-width="1" stroke-opacity="0.09"/>
<line x1="253.0" y1="265.0" x2="358.1" y2="265.0" stroke="#7a7062" stroke-width="1" stroke-opacity="0.24"/>
<line x1="362.5" y1="265.0" x2="484.1" y2="265.0" stroke="#7a7062" stroke-width="1" stroke-opacity="0.15"/>
<line x1="487.3" y1="265.0" x2="507.0" y2="265.0" stroke="#7a7062" stroke-width="1" stroke-opacity="0.17"/>
<line x1="272.2" y1="250.0" x2="272.2" y2="265.0" stroke="#7a7062" stroke-width="1" stroke-opacity="0.13"/>
<line x1="335.7" y1="250.0" x2="335.7" y2="265.0" stroke="#7a7062" stroke-width="1" stroke-opacity="0.16"/>
<line x1="399.2" y1="250.0" x2="399.2" y2="265.0" stroke="#7a7062" stroke-width="1" stroke-opacity="0.11"/>
<line x1="462.7" y1="250.0" x2="462.7" y2="265.0" stroke="#7a7062" stroke-width="1" stroke-opacity="0.16"/>
<line x1="253.0" y1="280.0" x2="306.9" y2="280.0" stroke="#7a7062" stroke-width="1" stroke-opacity="0.30"/>
<line x1="328.8" y1="280.0" x2="387.8" y2="280.0" stroke="#7a7062" stroke-width="1" stroke-opacity="0.32"/>
<line x1="410.3" y1="280.0" x2="507.0" y2="280.0" stroke="#7a7062" stroke-width="1" stroke-opacity="0.17"/>
<line x1="301.4" y1="265.0" x2="301.4" y2="280.0" stroke="#7a7062" stroke-width="1" stroke-opacity="0.15"/>
<line x1="364.9" y1="265.0" x2="364.9" y2="280.0" stroke="#7a7062" stroke-width="1" stroke-opacity="0.09"/>
<line x1="428.4" y1="265.0" x2="428.4" y2="280.0" stroke="#7a7062" stroke-width="1" stroke-opacity="0.18"/>
<line x1="491.9" y1="265.0" x2="491.9" y2="280.0" stroke="#7a7062" stroke-width="1" stroke-opacity="0.13"/>
<line x1="253.0" y1="295.0" x2="351.9" y2="295.0" stroke="#7a7062" stroke-width="1" stroke-opacity="0.17"/>
<line x1="364.0" y1="295.0" x2="454.3" y2="295.0" stroke="#7a7062" stroke-width="1" stroke-opacity="0.21"/>
<line x1="463.9" y1="295.0" x2="507.0" y2="295.0" stroke="#7a7062" stroke-width="1" stroke-opacity="0.30"/>
<line x1="299.0" y1="280.0" x2="299.0" y2="295.0" stroke="#7a7062" stroke-width="1" stroke-opacity="0.12"/>
<line x1="362.5" y1="280.0" x2="362.5" y2="295.0" stroke="#7a7062" stroke-width="1" stroke-opacity="0.18"/>
<line x1="426.0" y1="280.0" x2="426.0" y2="295.0" stroke="#7a7062" stroke-width="1" stroke-opacity="0.18"/>
<line x1="489.5" y1="280.0" x2="489.5" y2="295.0" stroke="#7a7062" stroke-width="1" stroke-opacity="0.15"/>
<line x1="253.0" y1="310.0" x2="392.5" y2="310.0" stroke="#7a7062" stroke-width="1" stroke-opacity="0.20"/>
<line x1="408.0" y1="310.0" x2="497.0" y2="310.0" stroke="#7a7062" stroke-width="1" stroke-opacity="0.16"/>
<line x1="499.3" y1="310.0" x2="507.0" y2="310.0" stroke="#7a7062" stroke-width="1" stroke-opacity="0.20"/>
<line x1="301.3" y1="295.0" x2="301.3" y2="310.0" stroke="#7a7062" stroke-width="1" stroke-opacity="0.10"/>
<line x1="364.8" y1="295.0" x2="364.8" y2="310.0" stroke="#7a7062" stroke-width="1" stroke-opacity="0.13"/>
<line x1="428.3" y1="295.0" x2="428.3" y2="310.0" stroke="#7a7062" stroke-width="1" stroke-opacity="0.17"/>
<line x1="491.8" y1="295.0" x2="491.8" y2="310.0" stroke="#7a7062" stroke-width="1" stroke-opacity="0.19"/>
<line x1="253.0" y1="325.0" x2="322.9" y2="325.0" stroke="#7a7062" stroke-width="1" stroke-opacity="0.27"/>
<line x1="331.1" y1="325.0" x2="434.4" y2="325.0" stroke="#7a7062" stroke-width="1" stroke-opacity="0.26"/>
<line x1="454.0" y1="325.0" x2="507.0" y2="325.0" stroke="#7a7062" stroke-width="1" stroke-opacity="0.24"/>
<line x1="300.2" y1="310.0" x2="300.2" y2="325.0" stroke="#7a7062" stroke-width="1" stroke-opacity="0.16"/>
<line x1="363.7" y1="310.0" x2="363.7" y2="325.0" stroke="#7a7062" stroke-width="1" stroke-opacity="0.16"/>
<line x1="427.2" y1="310.0" x2="427.2" y2="325.0" stroke="#7a7062" stroke-width="1" stroke-opacity="0.11"/>
<line x1="490.7" y1="310.0" x2="490.7" y2="325.0" stroke="#7a7062" stroke-width="1" stroke-opacity="0.09"/>
<line x1="253.0" y1="340.0" x2="318.4" y2="340.0" stroke="#7a7062" stroke-width="1" stroke-opacity="0.20"/>
<line x1="330.2" y1="340.0" x2="470.1" y2="340.0" stroke="#7a7062" stroke-width="1" stroke-opacity="0.33"/>
<line x1="483.9" y1="340.0" x2="507.0" y2="340.0" stroke="#7a7062" stroke-width="1" stroke-opacity="0.18"/>
<line x1="271.9" y1="325.0" x2="271.9" y2="340.0" stroke="#7a7062" stroke-width="1" stroke-opacity="0.10"/>
<line x1="335.4" y1="325.0" x2="335.4" y2="340.0" stroke="#7a7062" stroke-width="1" stroke-opacity="0.10"/>
<line x1="398.9" y1="325.0" x2="398.9" y2="340.0" stroke="#7a7062" stroke-width="1" stroke-opacity="0.17"/>
<line x1="462.4" y1="325.0" x2="462.4" y2="340.0" stroke="#7a7062" stroke-width="1" stroke-opacity="0.13"/>
<line x1="253.0" y1="355.0" x2="381.9" y2="355.0" stroke="#7a7062" stroke-width="1" stroke-opacity="0.20"/>
<line x1="386.8" y1="355.0" x2="507.0" y2="355.0" stroke="#7a7062" stroke-width="1" stroke-opacity="0.23"/>
<line x1="301.6" y1="340.0" x2="301.6" y2="355.0" stroke="#7a7062" stroke-width="1" stroke-opacity="0.12"/>
<line x1="365.1" y1="340.0" x2="365.1" y2="355.0" stroke="#7a7062" stroke-width="1" stroke-opacity="0.15"/>
<line x1="428.6" y1="340.0" x2="428.6" y2="355.0" stroke="#7a7062" stroke-width="1" stroke-opacity="0.19"/>
<line x1="492.1" y1="340.0" x2="492.1" y2="355.0" stroke="#7a7062" stroke-width="1" stroke-opacity="0.15"/>
<line x1="253.0" y1="370.0" x2="340.1" y2="370.0" stroke="#7a7062" stroke-width="1" stroke-opacity="0.19"/>
<line x1="361.3" y1="370.0" x2="433.9" y2="370.0" stroke="#7a7062" stroke-width="1" stroke-opacity="0.13"/>
<line x1="445.0" y1="370.0" x2="507.0" y2="370.0" stroke="#7a7062" stroke-width="1" stroke-opacity="0.30"/>
<line x1="266.5" y1="355.0" x2="266.5" y2="370.0" stroke="#7a7062" stroke-width="1" stroke-opacity="0.15"/>
<line x1="330.0" y1="355.0" x2="330.0" y2="370.0" stroke="#7a7062" stroke-width="1" stroke-opacity="0.19"/>
<line x1="393.5" y1="355.0" x2="393.5" y2="370.0" stroke="#7a7062" stroke-width="1" stroke-opacity="0.19"/>
<line x1="457.0" y1="355.0" x2="457.0" y2="370.0" stroke="#7a7062" stroke-width="1" stroke-opacity="0.12"/>
<line x1="253.0" y1="385.0" x2="382.9" y2="385.0" stroke="#7a7062" stroke-width="1" stroke-opacity="0.13"/>
<line x1="397.4" y1="385.0" x2="501.6" y2="385.0" stroke="#7a7062" stroke-width="1" stroke-opacity="0.19"/>
<line x1="266.3" y1="370.0" x2="266.3" y2="385.0" stroke="#7a7062" stroke-width="1" stroke-opacity="0.16"/>
<line x1="329.8" y1="370.0" x2="329.8" y2="385.0" stroke="#7a7062" stroke-width="1" stroke-opacity="0.18"/>
<line x1="393.3" y1="370.0" x2="393.3" y2="385.0" stroke="#7a7062" stroke-width="1" stroke-opacity="0.11"/>
<line x1="456.8" y1="370.0" x2="456.8" y2="385.0" stroke="#7a7062" stroke-width="1" stroke-opacity="0.15"/>
<line x1="253.0" y1="400.0" x2="405.9" y2="400.0" stroke="#7a7062" stroke-width="1" stroke-opacity="0.24"/>
<line x1="414.2" y1="400.0" x2="507.0" y2="400.0" stroke="#7a7062" stroke-width="1" stroke-opacity="0.28"/>
<line x1="306.3" y1="385.0" x2="306.3" y2="400.0" stroke="#7a7062" stroke-width="1" stroke-opacity="0.13"/>
<line x1="369.8" y1="385.0" x2="369.8" y2="400.0" stroke="#7a7062" stroke-width="1" stroke-opacity="0.18"/>
<line x1="433.3" y1="385.0" x2="433.3" y2="400.0" stroke="#7a7062" stroke-width="1" stroke-opacity="0.15"/>
<line x1="496.8" y1="385.0" x2="496.8" y2="400.0" stroke="#7a7062" stroke-width="1" stroke-opacity="0.12"/>
<line x1="253.0" y1="415.0" x2="367.8" y2="415.0" stroke="#7a7062" stroke-width="1" stroke-opacity="0.19"/>
<line x1="378.3" y1="415.0" x2="470.2" y2="415.0" stroke="#7a7062" stroke-width="1" stroke-opacity="0.32"/>
<line x1="481.4" y1="415.0" x2="507.0" y2="415.0" stroke="#7a7062" stroke-width="1" stroke-opacity="0.31"/>
<line x1="268.9" y1="400.0" x2="268.9" y2="415.0" stroke="#7a7062" stroke-width="1" stroke-opacity="0.11"/>
<line x1="332.4" y1="400.0" x2="332.4" y2="415.0" stroke="#7a7062" stroke-width="1" stroke-opacity="0.12"/>
<line x1="395.9" y1="400.0" x2="395.9" y2="415.0" stroke="#7a7062" stroke-width="1" stroke-opacity="0.17"/>
<line x1="459.4" y1="400.0" x2="459.4" y2="415.0" stroke="#7a7062" stroke-width="1" stroke-opacity="0.15"/>
<line x1="253.0" y1="430.0" x2="342.7" y2="430.0" stroke="#7a7062" stroke-width="1" stroke-opacity="0.26"/>
<line x1="359.5" y1="430.0" x2="466.3" y2="430.0" stroke="#7a7062" stroke-width="1" stroke-opacity="0.28"/>
<line x1="485.9" y1="430.0" x2="507.0" y2="430.0" stroke="#7a7062" stroke-width="1" stroke-opacity="0.24"/>
<line x1="273.0" y1="415.0" x2="273.0" y2="430.0" stroke="#7a7062" stroke-width="1" stroke-opacity="0.10"/>
<line x1="336.5" y1="415.0" x2="336.5" y2="430.0" stroke="#7a7062" stroke-width="1" stroke-opacity="0.19"/>
<line x1="400.0" y1="415.0" x2="400.0" y2="430.0" stroke="#7a7062" stroke-width="1" stroke-opacity="0.08"/>
<line x1="463.5" y1="415.0" x2="463.5" y2="430.0" stroke="#7a7062" stroke-width="1" stroke-opacity="0.16"/>
<ellipse cx="311.6" cy="254.2" rx="3.5" ry="6.7" fill="#000000" fill-opacity="0.044"/>
<ellipse cx="454.5" cy="276.9" rx="8.5" ry="6.5" fill="#5d564c" fill-opacity="0.050"/>
<ellipse cx="491.6" cy="364.7" rx="7.3" ry="4.6" fill="#000000" fill-opacity="0.051"/>
<ellipse cx="321.5" cy="200.0" rx="7.6" ry="2.6" fill="#000000" fill-opacity="0.054"/>
<ellipse cx="397.8" cy="302.5" rx="7.0" ry="2.8" fill="#000000" fill-opacity="0.058"/>
<ellipse cx="292.9" cy="405.6" rx="9.8" ry="2.9" fill="#5d564c" fill-opacity="0.058"/>
<ellipse cx="469.6" cy="266.8" rx="10.0" ry="7.1" fill="#000000" fill-opacity="0.058"/>
<ellipse cx="473.9" cy="289.5" rx="9.7" ry="4.2" fill="#000000" fill-opacity="0.080"/>
<ellipse cx="368.4" cy="344.9" rx="9.5" ry="6.0" fill="#5d564c" fill-opacity="0.091"/>
<ellipse cx="255.5" cy="240.0" rx="11.6" ry="7.8" fill="#000000" fill-opacity="0.052"/>
<ellipse cx="364.0" cy="170.2" rx="11.8" ry="5.3" fill="#000000" fill-opacity="0.082"/>
<ellipse cx="410.4" cy="372.3" rx="6.5" ry="7.2" fill="#5d564c" fill-opacity="0.076"/>
<ellipse cx="468.1" cy="326.5" rx="8.6" ry="6.8" fill="#000000" fill-opacity="0.069"/>
<ellipse cx="389.3" cy="350.9" rx="9.6" ry="4.4" fill="#000000" fill-opacity="0.094"/>
<ellipse cx="413.8" cy="213.6" rx="3.5" ry="5.9" fill="#000000" fill-opacity="0.045"/>
<ellipse cx="500.7" cy="237.5" rx="9.4" ry="3.0" fill="#5d564c" fill-opacity="0.059"/>
<ellipse cx="339.1" cy="334.2" rx="12.2" ry="4.5" fill="#5d564c" fill-opacity="0.056"/>
<ellipse cx="394.9" cy="243.0" rx="4.4" ry="6.7" fill="#000000" fill-opacity="0.062"/>
<ellipse cx="313.1" cy="428.5" rx="10.2" ry="6.5" fill="#5d564c" fill-opacity="0.049"/>
<ellipse cx="442.8" cy="186.7" rx="9.7" ry="4.4" fill="#5d564c" fill-opacity="0.059"/>
<ellipse cx="402.8" cy="275.8" rx="5.9" ry="2.5" fill="#000000" fill-opacity="0.096"/>
<ellipse cx="367.4" cy="421.7" rx="10.4" ry="3.1" fill="#5d564c" fill-opacity="0.092"/>
<ellipse cx="441.7" cy="347.4" rx="11.0" ry="6.0" fill="#000000" fill-opacity="0.067"/>
<ellipse cx="476.1" cy="398.3" rx="10.2" ry="8.0" fill="#5d564c" fill-opacity="0.083"/>
<ellipse cx="331.6" cy="336.3" rx="10.4" ry="3.2" fill="#5d564c" fill-opacity="0.049"/>
<ellipse cx="255.6" cy="284.7" rx="3.4" ry="7.5" fill="#000000" fill-opacity="0.088"/>
<ellipse cx="443.5" cy="207.4" rx="10.5" ry="7.3" fill="#000000" fill-opacity="0.076"/>
<ellipse cx="389.7" cy="265.8" rx="5.4" ry="2.9" fill="#000000" fill-opacity="0.042"/>
<ellipse cx="417.9" cy="178.3" rx="5.4" ry="3.8" fill="#000000" fill-opacity="0.079"/>
<ellipse cx="393.1" cy="341.0" rx="11.7" ry="5.3" fill="#5d564c" fill-opacity="0.041"/>
</g>
<rect x="253.0" y="160.0" width="254" height="2.5" fill="#7a7062" fill-opacity="0.30"/>
<rect x="297.0" y="204.0" width="61.0" height="184" fill="url(#ic-v7-m)"/>
<rect x="297.0" y="204.0" width="61.0" height="2" fill="#7a7062" fill-opacity="0.20"/>
<rect x="297.0" y="204.0" width="61.0" height="184" fill="none" stroke="#000" stroke-width="1" stroke-opacity="0.55"/>
<rect x="402.0" y="204.0" width="61.0" height="184" fill="url(#ic-v7-m)"/>
<rect x="402.0" y="204.0" width="61.0" height="2" fill="#7a7062" fill-opacity="0.20"/>
<rect x="402.0" y="204.0" width="61.0" height="184" fill="none" stroke="#000" stroke-width="1" stroke-opacity="0.55"/>
<rect x="252.0" y="280.6" width="46" height="19.8" fill="#0a0908"/>
<rect x="462.0" y="280.6" width="46" height="19.8" fill="#0a0908"/>
<rect x="316.5" y="285.0" width="22" height="22" fill="#d4a03c"/>
<rect x="313.5" y="282.0" width="28" height="28" fill="none" stroke="#d4a03c" stroke-width="1" stroke-opacity="0.30"/>
<rect x="421.5" y="285.0" width="22" height="22" fill="#d4a03c"/>
<rect x="418.5" y="282.0" width="28" height="28" fill="none" stroke="#d4a03c" stroke-width="1" stroke-opacity="0.30"/>
<linearGradient id="sinama-v7-m" gradientUnits="userSpaceOnUse" x1="86" y1="270.6" x2="327.5" y2="296.0"><stop offset="0%" stop-color="#e8c887"/><stop offset="100%" stop-color="#d4a03c"/></linearGradient>
<line x1="327.5" y1="296.0" x2="86.0" y2="270.6" stroke="url(#sinama-v7-m)" stroke-width="5.9" stroke-opacity="0.1" stroke-linecap="round"/>
<line x1="327.5" y1="296.0" x2="86.0" y2="270.6" stroke="url(#sinama-v7-m)" stroke-width="2.9" stroke-linecap="round"/>
<line x1="83.5" y1="257.6" x2="83.5" y2="283.6" stroke="#e8c887" stroke-width="5.1" stroke-linecap="round" stroke-opacity="0.95"/>
<line x1="432.5" y1="296.0" x2="448.0" y2="294.4" stroke="#d4a03c" stroke-width="2.90" stroke-opacity="1.000" stroke-linecap="round"/>
<line x1="448.0" y1="294.4" x2="463.6" y2="292.7" stroke="#d4a03c" stroke-width="2.66" stroke-opacity="0.950" stroke-linecap="round"/>
<line x1="463.6" y1="292.7" x2="479.1" y2="291.1" stroke="#d4a03c" stroke-width="2.43" stroke-opacity="0.881" stroke-linecap="round"/>
<line x1="479.1" y1="291.1" x2="494.7" y2="289.5" stroke="#d4a03c" stroke-width="2.19" stroke-opacity="0.803" stroke-linecap="round"/>
<line x1="494.7" y1="289.5" x2="510.2" y2="287.8" stroke="#d4a03c" stroke-width="1.95" stroke-opacity="0.718" stroke-linecap="round"/>
<line x1="510.2" y1="287.8" x2="525.8" y2="286.2" stroke="#d4a03c" stroke-width="1.71" stroke-opacity="0.627" stroke-linecap="round"/>
<line x1="525.8" y1="286.2" x2="541.3" y2="284.6" stroke="#d4a03c" stroke-width="1.48" stroke-opacity="0.531" stroke-linecap="round"/>
<line x1="541.3" y1="284.6" x2="556.8" y2="282.9" stroke="#d4a03c" stroke-width="1.24" stroke-opacity="0.432" stroke-linecap="round"/>
<line x1="556.8" y1="282.9" x2="572.4" y2="281.3" stroke="#d4a03c" stroke-width="1.00" stroke-opacity="0.328" stroke-linecap="round"/>
<line x1="572.4" y1="281.3" x2="587.9" y2="279.7" stroke="#d4a03c" stroke-width="0.76" stroke-opacity="0.222" stroke-linecap="round"/>
<line x1="587.9" y1="279.7" x2="603.5" y2="278.0" stroke="#d4a03c" stroke-width="0.53" stroke-opacity="0.112" stroke-linecap="round"/>
<line x1="603.5" y1="278.0" x2="619.0" y2="276.4" stroke="#d4a03c" stroke-width="0.46" stroke-opacity="0.000" stroke-linecap="round"/>
<rect width="720" height="560" filter="url(#gren-v7-m)" style="mix-blend-mode:overlay" opacity="0.70"/>
</svg>